<svg xmlns:xlink="http://www.w3.org/1999/xlink" xmlns="http://www.w3.org/2000/svg" id="Amazon_Web_Services_Logo" width="105.188" height="62.902" viewBox="0 0 105.188 62.902">
  <path id="Path_92129" data-name="Path 92129" d="M39.394,23.945a10.585,10.585,0,0,0,.385,3.114,18.727,18.727,0,0,0,1.12,2.519,1.522,1.522,0,0,1,.245.8,1.385,1.385,0,0,1-.665,1.05l-2.2,1.469a1.677,1.677,0,0,1-.91.315,1.61,1.61,0,0,1-1.05-.49,10.823,10.823,0,0,1-1.259-1.644c-.35-.595-.7-1.259-1.085-2.064a12.924,12.924,0,0,1-10.285,4.828,9.586,9.586,0,0,1-7-2.519A8.987,8.987,0,0,1,14.1,24.61,9.006,9.006,0,0,1,17.284,17.4a12.727,12.727,0,0,1,8.571-2.729,27.7,27.7,0,0,1,3.708.28c1.294.175,2.624.455,4.023.77V13.17c0-2.659-.56-4.513-1.644-5.6-1.12-1.085-3.009-1.609-5.7-1.609a15.917,15.917,0,0,0-3.778.455,27.875,27.875,0,0,0-3.778,1.189,10.038,10.038,0,0,1-1.224.455,2.146,2.146,0,0,1-.56.1c-.49,0-.735-.35-.735-1.085V5.368a2.214,2.214,0,0,1,.245-1.224,2.62,2.62,0,0,1,.98-.735A20.141,20.141,0,0,1,21.8,1.835a21.21,21.21,0,0,1,5.458-.665c4.163,0,7.207.945,9.166,2.834,1.924,1.889,2.9,4.758,2.9,8.606V23.945Zm-14.2,5.318a11.338,11.338,0,0,0,3.6-.63,7.8,7.8,0,0,0,3.324-2.239,5.553,5.553,0,0,0,1.189-2.239,12.559,12.559,0,0,0,.35-3.044V19.642a29.216,29.216,0,0,0-3.219-.595,26.361,26.361,0,0,0-3.289-.21,8.065,8.065,0,0,0-5.213,1.4,4.876,4.876,0,0,0-1.714,4.023,4.883,4.883,0,0,0,1.294,3.708A4.851,4.851,0,0,0,25.19,29.263Zm28.093,3.778a1.953,1.953,0,0,1-1.329-.35,2.851,2.851,0,0,1-.735-1.364L43,4.284a6.129,6.129,0,0,1-.315-1.4.767.767,0,0,1,.84-.875H46.95a1.939,1.939,0,0,1,1.364.35,2.862,2.862,0,0,1,.7,1.364l5.877,23.16L60.35,3.724a2.454,2.454,0,0,1,.665-1.364,2.407,2.407,0,0,1,1.4-.35h2.8a2.105,2.105,0,0,1,1.4.35,2.357,2.357,0,0,1,.665,1.364L72.8,27.163l6.052-23.44a3,3,0,0,1,.7-1.364,2.282,2.282,0,0,1,1.364-.35h3.254a.778.778,0,0,1,.875.875,3.489,3.489,0,0,1-.07.56,4.978,4.978,0,0,1-.245.875L76.3,31.362a2.683,2.683,0,0,1-.735,1.364,2.238,2.238,0,0,1-1.329.35H71.23a2.105,2.105,0,0,1-1.4-.35,2.48,2.48,0,0,1-.665-1.4L63.743,8.762l-5.388,22.53a2.731,2.731,0,0,1-.665,1.4,2.168,2.168,0,0,1-1.4.35Zm44.955.945a23.151,23.151,0,0,1-5.388-.63,15.915,15.915,0,0,1-4.023-1.4,2.521,2.521,0,0,1-1.085-.98,2.47,2.47,0,0,1-.21-.98V28.213c0-.735.28-1.085.8-1.085a1.981,1.981,0,0,1,.63.1c.21.07.525.21.875.35a19.029,19.029,0,0,0,3.848,1.224,21.009,21.009,0,0,0,4.163.42,9.439,9.439,0,0,0,5.108-1.154,3.767,3.767,0,0,0,1.819-3.324,3.407,3.407,0,0,0-.945-2.449,8.778,8.778,0,0,0-3.533-1.819l-5.073-1.574a10.671,10.671,0,0,1-5.6-3.568,8.335,8.335,0,0,1-1.749-5.073,7.786,7.786,0,0,1,.945-3.883,9,9,0,0,1,2.519-2.869,11.1,11.1,0,0,1,3.638-1.819A15.248,15.248,0,0,1,99.392,1.1a17.563,17.563,0,0,1,2.344.14c.8.1,1.539.245,2.274.385.7.175,1.364.35,1.994.56a7.636,7.636,0,0,1,1.469.63,3.025,3.025,0,0,1,1.05.875,1.885,1.885,0,0,1,.315,1.154V6.488c0,.735-.28,1.12-.8,1.12a3.639,3.639,0,0,1-1.329-.42,16,16,0,0,0-6.717-1.364,9.03,9.03,0,0,0-4.653.98A3.378,3.378,0,0,0,93.69,9.916a3.3,3.3,0,0,0,1.05,2.484,10.45,10.45,0,0,0,3.848,1.924l4.968,1.574a10.64,10.64,0,0,1,5.423,3.359,7.916,7.916,0,0,1,1.609,4.9,8.994,8.994,0,0,1-.91,4.058,9.409,9.409,0,0,1-2.554,3.079,11.277,11.277,0,0,1-3.883,1.959A16.636,16.636,0,0,1,98.238,33.985Z" transform="translate(-9.751 -1.1)" fill="#D4D4D4"/>
  <g id="Group_722" data-name="Group 722" transform="translate(0 39.215)">
    <path id="Path_92130" data-name="Path 92130" d="M96.767,127.734c-11.51,8.5-28.233,13.014-42.611,13.014A77.089,77.089,0,0,1,2.134,120.912c-1.085-.98-.1-2.309,1.189-1.539A104.914,104.914,0,0,0,55.38,133.192a103.882,103.882,0,0,0,39.707-8.116C97.012,124.2,98.656,126.335,96.767,127.734Z" transform="translate(-1.668 -117.061)" fill="#D4D4D4" fill-rule="evenodd"/>
    <path id="Path_92131" data-name="Path 92131" d="M260.4,118.408c-1.469-1.889-9.726-.91-13.469-.455-1.12.14-1.294-.84-.28-1.574,6.577-4.618,17.387-3.289,18.647-1.749,1.259,1.574-.35,12.385-6.507,17.562-.945.8-1.854.385-1.434-.665C258.761,128.063,261.874,120.262,260.4,118.408Z" transform="translate(-160.513 -113.192)" fill="#D4D4D4" fill-rule="evenodd"/>
  </g>
</svg>