<svg xmlns="http://www.w3.org/2000/svg" viewBox="0 0 46.7 46.7"><defs><style>.cls-1{fill:#d4d4d4;}</style></defs><title>Recurso 3615</title><g id="Capa_2" data-name="Capa 2"><g id="Capa_1-2" data-name="Capa 1"><path class="cls-1" d="M0,23.38C-.31,10.82,10.68-.14,23.58,0A23.71,23.71,0,0,1,46.7,23.43c0,12.5-10.64,23.65-23.61,23.26C10.63,46.89-.28,36,0,23.38Zm15.7.65h5.95c.51,0,.53,0,.52-.54A11.23,11.23,0,0,0,21.27,19a7.1,7.1,0,0,0-8.06-4.47,7.49,7.49,0,0,0-6.28,5.24,11,11,0,0,0,.27,8.06A6.77,6.77,0,0,0,11.67,32a9.2,9.2,0,0,0,6-.13,6.3,6.3,0,0,0,4.11-4.56c.07-.3,0-.41-.31-.41-.66,0-1.31,0-2,0a.39.39,0,0,0-.44.31,3.76,3.76,0,0,1-2.43,2.49,5.68,5.68,0,0,1-2.86.29,4.88,4.88,0,0,1-3.94-2.56,6.36,6.36,0,0,1-.66-2.84c0-.48,0-.51.5-.51Zm22.71,8.31H40c.23,0,.28-.08.13-.26l-.16-.21c-2.11-2.94-4.21-5.89-6.33-8.82a.55.55,0,0,1,0-.78q2.82-3.75,5.62-7.51c.06-.09.2-.17.14-.29s-.21-.07-.31-.07c-.84,0-1.69,0-2.53,0a.79.79,0,0,0-.72.37c-1.29,1.83-2.6,3.66-3.91,5.49-.36.51-.36.5-.71,0-1.26-1.84-2.53-3.68-3.78-5.53a.65.65,0,0,0-.63-.32H24c-.12,0-.29-.05-.35.07s.07.22.14.31l5.58,7.59c.39.54.4.53,0,1.06l-.07.09L23.26,32c-.05.08-.17.15-.12.26s.18.05.28.05c.88,0,1.76,0,2.64,0a.73.73,0,0,0,.7-.38c1.47-2.21,2.95-4.4,4.43-6.6.34-.52.36-.52.7,0L36.35,32a.68.68,0,0,0,.67.37C37.49,32.33,38,32.35,38.42,32.34Z"/><path class="cls-1" d="M14.22,21.8H9.85c-.67,0-.67,0-.56-.68a4.93,4.93,0,0,1,4-4.26,5,5,0,0,1,6,4.55c0,.36-.16.39-.43.39C17.29,21.79,15.75,21.79,14.22,21.8Z"/></g></g></svg>