<svg xmlns="http://www.w3.org/2000/svg" viewBox="0 0 87.04 34.09"><defs><style>.cls-1{fill:#d3d3d3;}</style></defs><title>Recurso 19programa </title><g id="Capa_2" data-name="Capa 2"><g id="Capa_1-2" data-name="Capa 1"><path class="cls-1" d="M46,15.54a17.67,17.67,0,0,1-5.75-3.89,16.28,16.28,0,0,1-3.9-6.42A8.53,8.53,0,0,1,36,2,1.53,1.53,0,0,1,37.32.46a8.69,8.69,0,0,1,3.83.07,35,35,0,0,1,6.57,1.91c-1-.77-2.32-1.09-3.57-1.87A11.39,11.39,0,0,1,47.31,0,61.65,61.65,0,0,1,60.44,1.22,128.94,128.94,0,0,1,77.62,5.55c2.13.68,4.18,1.58,6.26,2.42.47.19.63.45.46,1a5.7,5.7,0,0,0-.29,1.5L84.61,9a.72.72,0,0,1,1-.47c1.3.34,1.7,1,1.31,2.26a16.49,16.49,0,0,1-1.6,3.43c-.77,1.31-2.16,1.67-3.52,2-4.21,1-8.48,1.73-12.71,2.64q-2.53.55-5,1.23c-1.32.36-1.52.88-1,2.1.63,1.41.63,1.41-1,1.45a57.52,57.52,0,0,0-7.07.34,8.23,8.23,0,0,0-6.24,3.71.59.59,0,0,1-.13.18c-.35.29-.75.79-1.14.67s-.17-.73-.17-1.12c0-3.35,0-6.71,0-10.06,0-.63-.17-.85-.82-.83-2,0-3.95,0-5.92,0a1,1,0,0,0-1,.59c-.91,1.72-1.85,3.42-2.78,5.12-.1.18-.15.46-.42.44s-.27-.26-.37-.43c-.93-1.7-1.86-3.41-2.77-5.13a1,1,0,0,0-1-.59c-1.92,0-3.84,0-5.77,0-.56,0-.77.17-.76.75,0,1.6,0,3.21,0,4.81,0,.2.11.5-.17.57s-.37-.19-.49-.36c-3-4.06-7.21-6-12.16-6.51A29.23,29.23,0,0,0,1.55,17c-.28.08-.57.13-.85.19s-.55.22-.67,0,.23-.44.41-.6c1.5-1.32,3.07-2.56,4.68-3.73a59.7,59.7,0,0,1,16.62-8.7,35.28,35.28,0,0,1,12.57-1.8c.48,0,.83.06.88.69a13.29,13.29,0,0,0,4.47,9A13.69,13.69,0,0,0,46,15.54Zm.4-8a3.65,3.65,0,0,0-1-1A16.71,16.71,0,0,0,40,3.74c-.46-.15-1-.59-1.42-.13s-.1,1,.09,1.51c1.39,3.29,3.94,5.51,6.89,7.36-.25-.44-.57-.83-.85-1.24s-.67-.61-.49-1,.6.17,1,0c-.5-.59-1-1.16-1.45-1.74-.13-.16-.42-.33-.28-.53s.45,0,.66.05c.45.17.89.38,1.48.64l-.88-1.36c-.06-.1-.13-.22,0-.34s.22-.06.33,0Zm23.44.26A61.3,61.3,0,0,0,58.53,5.84,3.6,3.6,0,0,1,61,7.39a2.55,2.55,0,0,0,1.52.79,13.27,13.27,0,0,0,4.7.21C68,8.31,68.93,8.55,69.8,7.79ZM60.29,21.6a1.2,1.2,0,0,0,0-.72,2.14,2.14,0,0,1,1.32-2.61,21.62,21.62,0,0,1,4.78-1.95l1.72-.54a25.24,25.24,0,0,0-6.55,2,6.35,6.35,0,0,0-1.52,1,1,1,0,0,0-.44,1A5.21,5.21,0,0,0,60.29,21.6Z"/><path class="cls-1" d="M33.14,24.25l2,3.08c.34.53.71,1.05,1,1.6s.51.54.84,0c.84-1.36,1.73-2.7,2.61-4a5,5,0,0,1,.34-.46c.29.15.19.39.19.59,0,2.72,0,5.44,0,8.16,0,.64-.18.91-.87.9-1.85,0-3.7,0-5.55,0-.47,0-.7-.13-.7-.66q0-4.32,0-8.66A3.83,3.83,0,0,1,33.14,24.25Z"/></g></g></svg>