<svg xmlns="http://www.w3.org/2000/svg" viewBox="0 0 44.71 49.12"><defs><style>.cls-1{fill:#d4d4d4;}</style></defs><title>Recurso 3716</title><g id="Capa_2" data-name="Capa 2"><g id="Capa_1-2" data-name="Capa 1"><path class="cls-1" d="M44.7,16.15c-.1-1.31,0-2.63-.17-3.95A26.36,26.36,0,0,0,43.45,7a5.16,5.16,0,0,0-2.13-2.91,22.7,22.7,0,0,0-6.21-2.64A38.8,38.8,0,0,0,29.44.38Q26.58,0,23.71,0a59.81,59.81,0,0,0-10,.58A37,37,0,0,0,8.83,1.67,22,22,0,0,0,3.59,4,4.67,4.67,0,0,0,1.48,6.39a20.25,20.25,0,0,0-1,3.51,29,29,0,0,0-.44,3.46C0,15,0,16.73,0,18.42A37.3,37.3,0,0,0,.6,23.48a34.35,34.35,0,0,0,1.12,4.44,26.78,26.78,0,0,0,1.6,4A35.46,35.46,0,0,0,7.58,38.2,39.46,39.46,0,0,0,13.52,44a38.6,38.6,0,0,0,8.38,5,1,1,0,0,0,.9,0c1-.47,2-.91,3-1.47a44,44,0,0,0,5.5-3.69,38.79,38.79,0,0,0,8.77-9.7,27.35,27.35,0,0,0,2.42-4.84,33.42,33.42,0,0,0,1.18-4c.25-1,.45-2,.61-3.07A35,35,0,0,0,44.7,16.15ZM41.24,17a41.21,41.21,0,0,1-.41,4.7A31.82,31.82,0,0,1,40,25.54a23.94,23.94,0,0,1-2.94,6.79A35.23,35.23,0,0,1,31.58,39a37.46,37.46,0,0,1-8.72,6.15,1,1,0,0,1-1,0,37.31,37.31,0,0,1-10.43-7.89,31.51,31.51,0,0,1-4.72-6.52A24.33,24.33,0,0,1,4.81,26c-.34-1.17-.59-2.36-.81-3.55a34.65,34.65,0,0,1-.43-3.67,29.06,29.06,0,0,1-.09-3.49A32.59,32.59,0,0,1,3.89,11a18.83,18.83,0,0,1,.74-3,1.76,1.76,0,0,1,.78-1,20.63,20.63,0,0,1,4-1.77,32.89,32.89,0,0,1,6.51-1.35,41,41,0,0,1,6.47-.3,39.67,39.67,0,0,1,6.35.29,34.57,34.57,0,0,1,4.72.84,25.5,25.5,0,0,1,4.41,1.51A14.92,14.92,0,0,1,39.42,7a1.59,1.59,0,0,1,.65.9,22.36,22.36,0,0,1,1,5.32A33.22,33.22,0,0,1,41.24,17Z"/><path class="cls-1" d="M30,19.82a25.67,25.67,0,0,0-1.45-4.28,20.33,20.33,0,0,0-4.28-6.18A8.32,8.32,0,0,1,22.58,7c-.1-.22-.08-.5-.36-.7a3.36,3.36,0,0,1-1.39,2,18.54,18.54,0,0,0-4.17,5.49A22.38,22.38,0,0,0,15,18.37a19.56,19.56,0,0,0-.63,4.09A20.2,20.2,0,0,0,14.47,26a19.14,19.14,0,0,0,.62,2.64,16.73,16.73,0,0,0,2.34,4.59,17,17,0,0,0,4,4.19.55.55,0,0,1,.23.34,9.75,9.75,0,0,1,.51,3.08c0,.27,0,.54,0,.81s.05.23.28.21c.2.14.44.29.66.2s.06-.32.06-.5a9.32,9.32,0,0,0,0-2.3c0-.26,0-.53,0-.79a.21.21,0,0,0,.13-.32l.05-.19c.34-.26.46-.68.81-.95a16,16,0,0,0,4.32-5.27,16.07,16.07,0,0,0,1.66-5,17.57,17.57,0,0,0,.26-3.38A16.35,16.35,0,0,0,30,19.82Z"/></g></g></svg>