<svg xmlns="http://www.w3.org/2000/svg" viewBox="0 0 58.53 58.14"><defs><style>.cls-1{fill:#d4d4d4;}</style></defs><title>Recurso 3514</title><g id="Capa_2" data-name="Capa 2"><g id="Capa_1-2" data-name="Capa 1"><path class="cls-1" d="M43.65,54.81a28.7,28.7,0,0,0,2.82-6.63,3.54,3.54,0,0,0,.21-1.77c-4.34,6.85-10.33,10.83-18.27,11.73a24.77,24.77,0,0,0,8.19-7.25,36.79,36.79,0,0,1-7,1.7A15,15,0,0,0,35,46a13.92,13.92,0,0,0,.74-8.17C34.18,43.54,30.78,47.5,25,49.1a13.83,13.83,0,0,1-10.54-1.49c.53-.5,1.19-.32,1.73-.73a8.07,8.07,0,0,1-2.47-4.06,4.66,4.66,0,0,1,.75-4.29A3.32,3.32,0,0,1,17.8,37.3c1.07.21,1.38.8,1.05,1.81A3.1,3.1,0,0,0,22,43.31,1.09,1.09,0,0,0,23,42.7c.55-.79,1-1.66,1.5-2.55l.14,2.2a5.68,5.68,0,0,0,1.94-2.27c.67-1.25,1.12-1.36,2.32-.54.34.24.64.55,1,.9a2,2,0,0,0,0-1.16A17.59,17.59,0,0,0,9.28,25.63a1.64,1.64,0,0,0-1.18.82,3.73,3.73,0,0,1-1.3,1.49,14,14,0,0,1-.18-2.19c-.64.11-.62,1-1.3,1.06,0-.14-.13-.28-.11-.4a1.39,1.39,0,0,0-1.08-1.77.67.67,0,0,1-.26-.19C2.61,23.08,1.49,21.58.34,20.13S1,15.81,3.08,15.48a12.91,12.91,0,0,0,7.75-4.27c3-3.29,7.07-4.23,11.34-4.43a26.59,26.59,0,0,1,12,2,7.87,7.87,0,0,0,.81.3.81.81,0,0,0,.22,0c.23-.22.06-.46,0-.69a3.61,3.61,0,0,1,1.66-3.91c1.21-.8,2.3-1.62,2.43-3.21,0-.54.43-.38.72-.25C43.43,2.68,45.78,5.19,46.32,9a10.16,10.16,0,0,1-8.56,11.66,3.64,3.64,0,0,0-.43.12c1.82,1.13,6.12.51,8.61-1.29a10.5,10.5,0,0,0,4.47-7.71c7.34,7.71,12.18,22.61,3.39,34.7A21.25,21.25,0,0,0,53.25,40a32.92,32.92,0,0,1-2,5.87A22.45,22.45,0,0,1,43.79,55,1,1,0,0,0,43.65,54.81Z"/><path class="cls-1" d="M34.42,7.59a2.63,2.63,0,0,1-.1-2.8,3.51,3.51,0,0,0-.67-4.6,3.2,3.2,0,0,1,4,1.86c.21.74-.31,1-.77,1.37C35.46,4.44,34.32,5.63,34.42,7.59Z"/><path class="cls-1" d="M43.79,55c-.07.13-.21.22-.3.11s.08-.19.16-.26A1,1,0,0,1,43.79,55Z"/></g></g></svg>