<svg xmlns="http://www.w3.org/2000/svg" viewBox="0 0 49.76 54.83"><defs><style>.cls-1{fill:#d4d4d4;}</style></defs><title>Recurso 3312</title><g id="Capa_2" data-name="Capa 2"><g id="Capa_1-2" data-name="Capa 1"><path class="cls-1" d="M0,27.4V15.87a4.21,4.21,0,0,1,.8-2.5,4.4,4.4,0,0,1,1.34-1.2Q12.37,6.41,22.6.64a4.4,4.4,0,0,1,4.55,0c4.69,2.63,9.36,5.28,14.05,7.93l6.38,3.6a4.2,4.2,0,0,1,2,2.62,4.08,4.08,0,0,1,.14,1V38.93a4.2,4.2,0,0,1-1.14,2.93,4.14,4.14,0,0,1-1.06.84Q37.38,48.45,27.18,54.19a4.49,4.49,0,0,1-4.58,0L16,50.4a3.15,3.15,0,0,1-.71-.5c-.14-.15-.14-.17,0-.3a1,1,0,0,1,.38-.21,14.13,14.13,0,0,0,3-1.31.55.55,0,0,1,.54,0,2,2,0,0,1,.25.14c1.63.94,3.25,1.87,4.87,2.82a.9.9,0,0,0,1,0l3.37-1.9L45.5,39.69a1,1,0,0,0,.57-1q0-11.38,0-22.76a.79.79,0,0,0-.44-.75L25.28,3.75a.76.76,0,0,0-.81,0L4.11,15.23a.75.75,0,0,0-.42.71V38.85a.75.75,0,0,0,.43.75l5.28,3a5.24,5.24,0,0,0,1.91.66A3.21,3.21,0,0,0,13,43.05a2.57,2.57,0,0,0,1.57-2.35c0-2.75,0-5.5,0-8.25V17.83a.57.57,0,0,1,.61-.59h2.06a4.51,4.51,0,0,0,.52,0,.6.6,0,0,1,.62.62c0,.12,0,.25,0,.37q0,11.27,0,22.51A7.73,7.73,0,0,1,18,43.31a5.29,5.29,0,0,1-1.47,2.27,5.14,5.14,0,0,1-2.08,1.09,7.9,7.9,0,0,1-3.28.24A9.93,9.93,0,0,1,8,45.9c-1.42-.72-2.8-1.53-4.19-2.31l-1.54-.87A4.25,4.25,0,0,1,0,39.56a4.1,4.1,0,0,1,0-.7Z"/><path class="cls-1" d="M30.47,16.62a18,18,0,0,1,4,.37,11.37,11.37,0,0,1,2.52.86,6.17,6.17,0,0,1,3,3.2,7.08,7.08,0,0,1,.58,2.6.56.56,0,0,1-.53.62.75.75,0,0,1-.15,0H37.5a.66.66,0,0,1-.73-.59,4.77,4.77,0,0,0-.17-.62,4.88,4.88,0,0,0-.36-.81,3.38,3.38,0,0,0-1.72-1.51,8.09,8.09,0,0,0-2.16-.51,19.9,19.9,0,0,0-2.56-.06,9.24,9.24,0,0,0-2.61.36,4.31,4.31,0,0,0-1.09.5,2.13,2.13,0,0,0-1,1.55,2.8,2.8,0,0,0,0,.91,1.16,1.16,0,0,0,.47.73,2.32,2.32,0,0,0,.66.35,12,12,0,0,0,1.87.49c1.07.22,2.16.36,3.25.51a41.35,41.35,0,0,1,4.69.79,12.59,12.59,0,0,1,2.41.79,6.06,6.06,0,0,1,1.3.82,4.1,4.1,0,0,1,1.44,2.3,7,7,0,0,1,0,3.3A5.69,5.69,0,0,1,39,36.94a9.2,9.2,0,0,1-3,1.36,16.29,16.29,0,0,1-3.25.51,23.5,23.5,0,0,1-3.25,0A15.87,15.87,0,0,1,25.12,38a8.52,8.52,0,0,1-2.34-1.25A6.1,6.1,0,0,1,20.48,33a7.92,7.92,0,0,1-.14-1.53.59.59,0,0,1,.59-.6H23.6a.59.59,0,0,1,.59.52c0,.26.09.53.16.79a4.49,4.49,0,0,0,.55,1.27,2.88,2.88,0,0,0,1,.91,6.59,6.59,0,0,0,2.36.79,15.17,15.17,0,0,0,2.13.17c.85,0,1.7,0,2.54,0a8.62,8.62,0,0,0,2.57-.5,4.69,4.69,0,0,0,.86-.45,2.31,2.31,0,0,0,1-1.62,3,3,0,0,0,0-1,1.47,1.47,0,0,0-.56-1,3.64,3.64,0,0,0-1.25-.61,18.81,18.81,0,0,0-2.7-.59c-1.19-.17-2.38-.28-3.57-.42a22.19,22.19,0,0,1-3.79-.7,9.49,9.49,0,0,1-1.7-.66,7.39,7.39,0,0,1-.76-.47,4.46,4.46,0,0,1-1.82-2.68,6.58,6.58,0,0,1,0-3.15,5.43,5.43,0,0,1,2.23-3.12,8.75,8.75,0,0,1,2.93-1.29,13.67,13.67,0,0,1,3.05-.42Z"/></g></g></svg>