<svg xmlns="http://www.w3.org/2000/svg" viewBox="0 0 48.15 50.3"><defs><style>.cls-1{fill:#d4d4d4;}</style></defs><title>Recurso 3111</title><g id="Capa_2" data-name="Capa 2"><g id="Capa_1-2" data-name="Capa 1"><path class="cls-1" d="M24.87,37.29c0-1.25,0-2.4.07-3.55a3.21,3.21,0,0,0-2.57-3.48,1.58,1.58,0,0,0-.38,0c-.52,0-.53,0-.36-.52A26.6,26.6,0,0,1,23,26.32a14.86,14.86,0,0,0,1.12-8.27c-.11-.95-.28-1.89-.48-2.82A3.93,3.93,0,0,0,19.5,11.9,10,10,0,0,0,15,13.06c-.15.07-.3.25-.46.14s-.06-.32,0-.49a16.58,16.58,0,0,1,3-8.5A8.85,8.85,0,0,1,24.58.63C31.36.44,36.13,3.68,39.36,9.47a13,13,0,0,1,.81,1.74c.14.34,0,.49-.32.45a9.33,9.33,0,0,0-2.64.1c-2.54.45-3.77,2.24-3.54,4.79a16.15,16.15,0,0,0,1.8,5.71c1.07,2.17,2.2,4.31,3.43,6.4a13.43,13.43,0,0,0,.92,1.22c.12.17.16.31-.08.39-1.59.53-2,1.79-2.1,3.28-.24,4-.82,7.92-1.45,11.85A5.23,5.23,0,0,1,31.84,50a7.8,7.8,0,0,1-3,.26,3.55,3.55,0,0,1-2.33-1.45,6.81,6.81,0,0,1-1.26-3.48C24.94,42.6,24.88,39.9,24.87,37.29Z"/><path class="cls-1" d="M0,11.35A16.39,16.39,0,0,1,.5,7,7.75,7.75,0,0,1,7,1a19.07,19.07,0,0,1,8,.46c.65.15,1.29.35,1.94.53.22.07.37.15.14.4a16.52,16.52,0,0,0-4,8.92,23.41,23.41,0,0,0-.21,5.61,31.63,31.63,0,0,1-.24,5.67A8,8,0,0,0,15,29.29c.42.43.42.42,0,.86-1.3,1.43-2.59,2.88-3.83,4.37a5.32,5.32,0,0,1-.75.75,1.8,1.8,0,0,1-2.46,0,7.6,7.6,0,0,1-1.75-2.08,30.8,30.8,0,0,1-2.85-6.43A78.37,78.37,0,0,1,.13,13.4,10.72,10.72,0,0,1,0,11.35Z"/><path class="cls-1" d="M35.83,0a15,15,0,0,1,8.33,2.09A12.72,12.72,0,0,1,47.38,5a4.42,4.42,0,0,1,.76,2.66A25.23,25.23,0,0,1,47,15.56a50.85,50.85,0,0,1-5.66,12.85.67.67,0,0,1-.09.14c-.1.1-.12.35-.33.22s-.18-.3-.07-.49a8.21,8.21,0,0,0,.89-2.39,11.9,11.9,0,0,0,0-4.33,21.11,21.11,0,0,1,.15-7,7.6,7.6,0,0,0-.66-4.73A18.84,18.84,0,0,0,32.54.7c-.1,0-.29-.07-.26-.22s.21-.12.33-.14A16.87,16.87,0,0,1,35.83,0Z"/><path class="cls-1" d="M22.69,20.41a11.73,11.73,0,0,1-1.19,5.47,24.4,24.4,0,0,0-1.37,3.63.45.45,0,0,1-.56.37,5.7,5.7,0,0,1-4.44-2.82,6.39,6.39,0,0,1-1-4.45,33.17,33.17,0,0,0,.18-6.9.81.81,0,0,1,.47-.86A10.39,10.39,0,0,1,19,13.39a2.58,2.58,0,0,1,3.1,2.17c.17.72.29,1.46.4,2.19A13.78,13.78,0,0,1,22.69,20.41Zm-3-6.08a2.35,2.35,0,0,0-.77.12.53.53,0,0,0-.33.75,1.54,1.54,0,0,0,2.51.47.58.58,0,0,0-.13-1A3.12,3.12,0,0,0,19.66,14.33Z"/><path class="cls-1" d="M38.93,13.09c.34,0,.73.07,1.13.08s.46.17.44.52c-.07,1-.27,2-.39,3a18.47,18.47,0,0,0,.13,4.64,11.68,11.68,0,0,1,0,4.37,9.19,9.19,0,0,1-.34,1.05.3.3,0,0,1-.15.19c-.09,0-.14-.07-.18-.15-1.29-2.75-3-5.29-3.92-8.24a7.43,7.43,0,0,1-.41-3.27,2.26,2.26,0,0,1,1.53-1.89A6.85,6.85,0,0,1,38.93,13.09ZM38,14a2.55,2.55,0,0,0-1.19.27.5.5,0,0,0-.1.9,1.35,1.35,0,0,0,1.76.06c.28-.22.6-.48.49-.87S38.37,14,38,14Z"/><path class="cls-1" d="M18.19,36.52A8,8,0,0,1,15.53,36c-.11,0-.28-.09-.28-.23s.19-.19.32-.22l2-.49a4.62,4.62,0,0,0,2.81-1.8,11.86,11.86,0,0,1,1-1.21.83.83,0,0,1,1.19-.13,1.6,1.6,0,0,1,.45,2.3A6,6,0,0,1,18.19,36.52Z"/><path class="cls-1" d="M41.34,34.3a9.21,9.21,0,0,1-1.76-.22.5.5,0,0,1-.42-.46,1.74,1.74,0,0,1,1.44-2,.61.61,0,0,1,.49.07,6.35,6.35,0,0,0,3.71.71A21.71,21.71,0,0,0,47.46,32c.1,0,.25-.11.3,0s-.09.19-.18.26a8.8,8.8,0,0,1-4.49,1.82C42.5,34.21,41.91,34.25,41.34,34.3Z"/></g></g></svg>