<svg xmlns="http://www.w3.org/2000/svg" viewBox="0 0 54 62.27"><defs><style>.cls-1{fill:#d3d3d3;}</style></defs><title>Recurso 18programa </title><g id="Capa_2" data-name="Capa 2"><g id="Capa_1-2" data-name="Capa 1"><path class="cls-1" d="M27.39,62.27h-.78L13.37,54.54,0,46.77V15.5c2-1.2,4.06-2.42,6.1-3.6Q16.35,5.93,26.61,0h.78Q35.15,4.49,42.9,9c3.69,2.11,7.4,4.19,11.1,6.28V47c-.38.19-.78.36-1.15.58Q40.11,54.92,27.39,62.27ZM48,31.05c0-3.62,0-7.23,0-10.85a2.16,2.16,0,0,0-1.26-2.14Q37.33,12.78,28,7.4a1.74,1.74,0,0,0-2,.06c-6.14,3.63-12.3,7.26-18.48,10.83a2.39,2.39,0,0,0-1.34,2.38c0,7.06,0,14.11,0,21.17a2.68,2.68,0,0,0,1.58,2.64q9.09,5.16,18.1,10.46a2.17,2.17,0,0,0,2.49,0q9.26-5.52,18.56-11A2,2,0,0,0,48,42C48,38.36,48,34.7,48,31.05Z"/><path class="cls-1" d="M45,37.67c1,3.48-.72,5.41-3.75,6.68a23.91,23.91,0,0,0-3.12,1.82c-.68.41-1.16.39-1.17-.55,0-2.37,0-4.74,0-7.1a1.39,1.39,0,0,1,.79-1.24c2-1.23,4.05-2.46,6.06-3.71.94-.59,1.21-.2,1.2.74C45,35.43,45,36.55,45,37.67Z"/><path class="cls-1" d="M16.88,41.74c0,1.2,0,2.41,0,3.61,0,.75-.33.93-1,.58L9.7,42.55A1.33,1.33,0,0,1,9,41.27q0-3.54,0-7.09c0-.93.35-1.16,1.18-.68,2,1.17,4,2.34,6,3.5a1.4,1.4,0,0,1,.72,1.39c0,1.12,0,2.23,0,3.35Z"/><path class="cls-1" d="M34.11,14.71a5.49,5.49,0,0,1-.56.45c-2,1.19-4.09,2.37-6.13,3.57a1.3,1.3,0,0,1-1.45,0c-2-1.17-4-2.34-6-3.49-.82-.46-.86-.84,0-1.33,2-1.13,3.93-2.3,5.89-3.47a1.28,1.28,0,0,1,1.44-.06l6.34,3.74A.83.83,0,0,1,34.11,14.71Z"/><path class="cls-1" d="M45,26.85c.85,2.54-.74,4.13-3.29,5.28A34.76,34.76,0,0,0,38,34.26c-.71.42-1.07.2-1.07-.58,0-2.07,0-4.13,0-6.2a1.36,1.36,0,0,1,.78-1.24c2-1.19,4.09-2.38,6.12-3.59.9-.53,1.15-.12,1.14.73Z"/><path class="cls-1" d="M16.89,30.22c0,1,0,2.06,0,3.09,0,.77-.25,1.06-1,.66-2.07-1.14-4.15-2.28-6.22-3.4A1.3,1.3,0,0,1,9,29.28q0-3.09,0-6.19c0-.9.31-1.21,1.16-.71,2,1.15,3.95,2.28,5.93,3.41a1.47,1.47,0,0,1,.83,1.46C16.86,28.24,16.89,29.23,16.89,30.22Z"/><path class="cls-1" d="M43.31,19.74c0,.44-.28.59-.53.74-2,1.2-4.08,2.38-6.11,3.58a1.21,1.21,0,0,1-1.33,0c-1.82-1.06-3.63-2.12-5.46-3.16-.82-.47-.66-.84,0-1.25,2-1.15,3.93-2.3,5.88-3.47a1.35,1.35,0,0,1,1.55-.06c1.8,1.09,3.62,2.14,5.43,3.22A3.47,3.47,0,0,1,43.31,19.74Z"/><path class="cls-1" d="M26.15,47.05v3.61c0,.76-.34.91-1,.56-1.82-1-3.62-2-5.44-3A1.31,1.31,0,0,1,19,47c0-2.36,0-4.73,0-7.09,0-.91.27-1.21,1.14-.72,1.71,1,3.44,2,5.17,2.91a1.48,1.48,0,0,1,.82,1.48c0,1.16,0,2.32,0,3.48Z"/><path class="cls-1" d="M17.29,15.58a6.16,6.16,0,0,1,.73.32l6,3.52c.8.46.87.85,0,1.33q-2.57,1.47-5.12,3a1.41,1.41,0,0,1-1.56,0c-2-1.17-4-2.31-6-3.48-.53-.3-1.05-.66-.19-1.18,1.84-1.1,3.7-2.19,5.55-3.28A3.86,3.86,0,0,1,17.29,15.58Z"/><path class="cls-1" d="M28.57,46.4c-1-2.95.74-4.87,3.87-6a14.39,14.39,0,0,0,2.14-1.17c.79-.46,1.11-.17,1.1.66v6.82A1.35,1.35,0,0,1,35,48l-5.42,3.21c-.71.42-1,.24-1-.58C28.58,49.4,28.57,48.2,28.57,46.4Z"/><path class="cls-1" d="M27.32,21.29c.21.09.42.15.6.25l5.46,3.19c.76.44.74.83,0,1.27q-2.62,1.5-5.23,3.05a1.21,1.21,0,0,1-1.33.08C24.9,28,23,27,21.09,25.86c-.56-.32-.66-.67-.05-1l5.67-3.34A3.63,3.63,0,0,1,27.32,21.29Z"/><path class="cls-1" d="M26.15,35.52v3c0,.8-.28,1.16-1.09.72l-5.33-2.9A1.32,1.32,0,0,1,19,35q0-3.16,0-6.32c0-.78.27-1.06,1-.63,1.79,1,3.58,2.07,5.38,3.08a1.46,1.46,0,0,1,.74,1.39C26.15,33.54,26.15,34.53,26.15,35.52Z"/><path class="cls-1" d="M28.57,35.18c.11-4.48-.77-3,3.28-5.48.88-.54,1.79-1,2.67-1.57s1.17-.24,1.17.68c0,1.93,0,3.87,0,5.81a1.55,1.55,0,0,1-.82,1.49c-1.75,1-3.49,2-5.23,3.08-.77.45-1.09.21-1.08-.65C28.58,37.5,28.57,36.47,28.57,35.18Z"/></g></g></svg>