<svg xmlns="http://www.w3.org/2000/svg" viewBox="0 0 56.54 41.04"><defs><style>.cls-1{fill:#d4d4d4;}</style></defs><title>Recurso 244</title><g id="Capa_2" data-name="Capa 2"><g id="Capa_1-2" data-name="Capa 1"><path class="cls-1" d="M28.27,41H.25C.06,41,0,41,0,40.8Q0,20.52,0,.23C0,0,0,0,.23,0H56.3c.18,0,.24,0,.24.22q0,20.31,0,40.6c0,.18,0,.22-.22.22Zm15.09-4.64a9.73,9.73,0,0,0,4.56-.86A6.57,6.57,0,0,0,51.49,32a7.76,7.76,0,0,0,.43-4.13,6.61,6.61,0,0,0-1.4-3.36,8.77,8.77,0,0,0-2.29-1.91,40.5,40.5,0,0,0-4.78-2.32,8.25,8.25,0,0,1-2.09-1.17,2.32,2.32,0,0,1-.76-2.44,2,2,0,0,1,1.73-1.58,3.3,3.3,0,0,1,3.48,1.23l.51.68a.24.24,0,0,0,.35.06c1.21-.76,2.4-1.54,3.57-2.36a.24.24,0,0,0,.07-.39c-.24-.37-.51-.71-.78-1.05a7,7,0,0,0-4-2.51,13.79,13.79,0,0,0-3-.23,7.6,7.6,0,0,0-2.41.39,6.69,6.69,0,0,0-4.43,4.26,7.86,7.86,0,0,0-.3,2.73,6.51,6.51,0,0,0,1.72,4.37,10,10,0,0,0,3.12,2.25c1.17.6,2.4,1.08,3.59,1.63a10.66,10.66,0,0,1,2,1.14,2.23,2.23,0,0,1,.86,1.32,2.36,2.36,0,0,1-1.4,2.78,5.17,5.17,0,0,1-3,.39,4.83,4.83,0,0,1-2.47-1A8.07,8.07,0,0,1,38.2,29c-.12-.19-.21-.24-.43-.11-1.23.72-2.47,1.42-3.7,2.13-.27.16-.28.2-.13.46a9.24,9.24,0,0,0,3.94,3.79A11.14,11.14,0,0,0,43.36,36.39ZM24.92,25.77v-10c0-.4,0-.41.41-.41H32c.32,0,.34,0,.33-.33,0-1.29,0-2.57,0-3.85,0-.33,0-.35-.35-.35l-4,0c-5,0-10-.05-15,0-.37,0-.36,0-.38.37,0,1.27,0,2.54,0,3.81,0,.35,0,.35.36.35h6.48c.56,0,.53,0,.53.52V35.71c0,.4,0,.4.41.4h4.31c.43,0,.43,0,.43-.42Z"/></g></g></svg>