<svg xmlns="http://www.w3.org/2000/svg" viewBox="0 0 51.67 51.93"><defs><style>.cls-1{fill:#d4d4d4;}</style></defs><title>Recurso 4019</title><g id="Capa_2" data-name="Capa 2"><g id="Capa_1-2" data-name="Capa 1"><path class="cls-1" d="M0,25.88a3.44,3.44,0,0,1,1.34-3L10,14.26q2.76-2.78,5.53-5.53c.84-.83,1-.83,1.89,0,1.37,1.37,2.73,2.76,4.08,4.14a2.12,2.12,0,0,1,.68,2.06,3.51,3.51,0,0,0,1.51,3.59,2,2,0,0,1,.86,1.78q0,6,0,11.94A1.91,1.91,0,0,1,23.71,34a3.65,3.65,0,0,0-1.15,4.73,3.73,3.73,0,0,0,4.24,1.89,3.58,3.58,0,0,0,2.62-2.77,3.52,3.52,0,0,0-1.23-3.7,2.13,2.13,0,0,1-.86-1.87c0-3.82,0-7.63,0-11.44,0-.42-.14-1,.35-1.17s.77.28,1.07.57c1.23,1.22,2.45,2.47,3.69,3.68a1.58,1.58,0,0,1,.49,1.62,3.68,3.68,0,0,0,6.94,2.3A3.78,3.78,0,0,0,38.38,23a2.74,2.74,0,0,0-2-.41,2.12,2.12,0,0,1-2.26-.88c-1.35-1.39-2.68-2.8-4.05-4.18a1.77,1.77,0,0,1-.58-1.68,3.67,3.67,0,0,0-4.13-4.09,1.66,1.66,0,0,1-1.53-.5c-1.48-1.5-3-3-4.46-4.48-.89-.91-.88-1.08,0-2,1.19-1.21,2.38-2.44,3.59-3.64a3.69,3.69,0,0,1,5.44,0Q37.13,10,45.85,18.75c1.46,1.47,2.93,2.93,4.38,4.41,2,2,1.89,3.92-.13,5.9-2.5,2.45-4.92,5-7.39,7.48Q35.54,43.76,28.34,51a3.8,3.8,0,0,1-5.18-.09c-1.74-1.67-3.42-3.39-5.12-5.1Q9.52,37.21,1,28.63A3.23,3.23,0,0,1,0,25.88Z"/></g></g></svg>