<svg xmlns="http://www.w3.org/2000/svg" viewBox="0 0 46.52 44.99"><defs><style>.cls-1{fill:#d4d4d4;}</style></defs><title>Recurso 3918</title><g id="Capa_2" data-name="Capa 2"><g id="Capa_1-2" data-name="Capa 1"><path class="cls-1" d="M16.1,36.79c-.32.68-.38,1.24-1,1.27s-.62-.53-.89-.9c-.66.49-1.36,1.17-1.62-.3,0-.23-.23-.16-.4-.16-1.17.06-1.33-.13-1-1.27-.66.14-1.2.14-1.25-.77,0-.52-.63-.85-.9-1.06-.53-.39-.75-1.13-1.44-1.27a.7.7,0,0,0-.56.11c-.17.19,0,.38.2.48,1.59,1,2.33,2.67,3.21,4.26a4.43,4.43,0,0,0,4,2.07,18,18,0,0,0,2.2-.09c.76-.06,1.13.25,1.12,1,0,1,0,2,0,3,0,1.55-.89,2.12-2.41,1.57A22.47,22.47,0,0,1,9,41.27,23.35,23.35,0,0,1,1,29.55,22.63,22.63,0,0,1,.52,18.18,22.3,22.3,0,0,1,8.43,5.3,22.16,22.16,0,0,1,17.56.68a23.54,23.54,0,0,1,9-.43,22.74,22.74,0,0,1,9,3.25A22.41,22.41,0,0,1,46.06,18.7a22.3,22.3,0,0,1-5.5,19.73A22.71,22.71,0,0,1,31,44.83c-1.41.5-2.38-.22-2.39-1.72,0-1.91,0-3.81,0-5.72a6.51,6.51,0,0,0-.88-3.45c-.49-.84-.39-1.11.58-1.28a15.7,15.7,0,0,0,4.12-1.15A8.68,8.68,0,0,0,37.28,25a10,10,0,0,0-1.65-8.73,1.7,1.7,0,0,1-.19-1.45,9.85,9.85,0,0,0,0-3.59c-.17-1.09-.52-1.39-1.61-1.16A11.78,11.78,0,0,0,30,11.77a2.74,2.74,0,0,1-2.18.33,23.05,23.05,0,0,0-9.25,0,2.58,2.58,0,0,1-2.09-.36A13.49,13.49,0,0,0,13,10.17c-1.31-.39-1.62-.14-2,1.14a6.42,6.42,0,0,0,0,3.66,1.59,1.59,0,0,1-.36,1.58c-3,3.54-2.06,10.31.77,13.17a10.49,10.49,0,0,0,5.66,2.8c.3,0,.6.06.89.13,1.13.25,1.15.42.6,1.45a17.85,17.85,0,0,0-1.13,2.75c-.11.34,0,.76-.46.87S16.22,37.51,16.1,36.79Z"/></g></g></svg>