<svg xmlns="http://www.w3.org/2000/svg" viewBox="0 0 54 52.35"><defs><style>.cls-1{fill:#d3d3d3;}</style></defs><title>Recurso 21programa </title><g id="Capa_2" data-name="Capa 2"><g id="Capa_1-2" data-name="Capa 1"><path class="cls-1" d="M27,52.35H16.72a3.68,3.68,0,0,1-3-1.46q-6.4-8-12.83-16A3.62,3.62,0,0,1,.11,31.7q2-8.49,3.92-17l.66-2.88A3.53,3.53,0,0,1,6.74,9.25L13.32,6.1C17.24,4.23,21.17,2.37,25.08.47a4.09,4.09,0,0,1,3.8,0Q38,4.84,47.09,9.16a4,4,0,0,1,2.28,2.93c1.22,5.41,2.48,10.81,3.72,16.21.28,1.19.56,2.38.82,3.58a3.42,3.42,0,0,1-.7,3L44.09,46.2c-1.26,1.58-2.53,3.15-3.8,4.73a3.63,3.63,0,0,1-3,1.42Zm14.6-25a15.24,15.24,0,0,0-.27-3,14.45,14.45,0,0,0-2.09-5.14c-.09-.14-.08-.21,0-.31s.26-.17.26-.36a.75.75,0,0,1,.32-.61,11.41,11.41,0,0,1,1.91-1.25,4.58,4.58,0,0,0,.89-.62,1.12,1.12,0,0,0-.29-1.94,1.2,1.2,0,0,0-1.1.17,4.48,4.48,0,0,0-.85.78,12.2,12.2,0,0,1-1.6,1.53.7.7,0,0,1-.55.18.6.6,0,0,0-.51.17c-.13.12-.22.11-.36,0a14.51,14.51,0,0,0-9-4.32c-.13,0-.18-.06-.18-.2s0-.31-.13-.43a.81.81,0,0,1-.28-.66A12.08,12.08,0,0,1,28,9.39a5.58,5.58,0,0,0,.12-1.52,1.23,1.23,0,0,0-.87-1,1.1,1.1,0,0,0-1.19.53,1.76,1.76,0,0,0-.17,1.19c.1.8.24,1.6.27,2.41a1.2,1.2,0,0,1-.25,1,.39.39,0,0,0-.14.37c0,.19-.07.25-.24.26a13.62,13.62,0,0,0-2.76.54,14.42,14.42,0,0,0-6.2,3.76c-.13.14-.23.18-.38,0a.34.34,0,0,0-.32-.13.85.85,0,0,1-.73-.21,12.86,12.86,0,0,1-1.55-1.49,4.51,4.51,0,0,0-.88-.81,1.21,1.21,0,0,0-1.41,0,1.16,1.16,0,0,0,0,1.77,4.53,4.53,0,0,0,.89.61,12.93,12.93,0,0,1,1.88,1.23.8.8,0,0,1,.33.56.56.56,0,0,0,.25.41c.15.1.14.18.05.32a14.42,14.42,0,0,0-2.33,8.12,9,9,0,0,0,.12,1.56c0,.2,0,.31-.21.34a.45.45,0,0,0-.33.19,1,1,0,0,1-.74.46,18.76,18.76,0,0,1-2.36.28,2.3,2.3,0,0,0-1.17.33,1.11,1.11,0,0,0-.47,1.21,1.14,1.14,0,0,0,1.07.81,3.26,3.26,0,0,0,1.37-.34,13.81,13.81,0,0,1,2-.67.92.92,0,0,1,.69,0,.58.58,0,0,0,.54.09c.14-.05.22,0,.27.16a14.56,14.56,0,0,0,6.25,7.79c.13.08.16.15.08.27a.62.62,0,0,0,0,.59.69.69,0,0,1-.06.54,12.75,12.75,0,0,1-1.16,1.94,4.77,4.77,0,0,0-.56,1A1.21,1.21,0,0,0,18,45.29a1.16,1.16,0,0,0,1.68-.42,5.88,5.88,0,0,0,.45-1.14,12.08,12.08,0,0,1,.76-2,.68.68,0,0,1,.41-.42.56.56,0,0,0,.42-.38c.05-.13.13-.15.27-.1a14.35,14.35,0,0,0,3.1.77,14.56,14.56,0,0,0,3.49,0,14,14,0,0,0,3.43-.8c.13,0,.19,0,.25.1s.09.27.26.3a.91.91,0,0,1,.58.52,13.85,13.85,0,0,1,.78,2.12,3.88,3.88,0,0,0,.4,1,1.2,1.2,0,0,0,1.42.57,1.13,1.13,0,0,0,.66-1.35,3.38,3.38,0,0,0-.6-1.16,11.16,11.16,0,0,1-1.17-2,.66.66,0,0,1-.06-.58.48.48,0,0,0,0-.48c-.09-.16,0-.23.11-.32a14.53,14.53,0,0,0,6.21-7.82c.06-.17.12-.22.3-.17a.36.36,0,0,0,.37,0,.83.83,0,0,1,.73-.12,13.79,13.79,0,0,1,1.39.41,9.64,9.64,0,0,0,1.81.61,1.24,1.24,0,0,0,1.27-.66,1.11,1.11,0,0,0-.37-1.32,1.86,1.86,0,0,0-1-.34c-.75-.08-1.51-.1-2.25-.24-.46-.08-.93-.13-1.18-.61a.29.29,0,0,0-.23-.1c-.22,0-.26-.15-.22-.35A13.23,13.23,0,0,0,41.6,27.31Z"/><path class="cls-1" d="M32,30l1.94.33,3.71.62c.3.05.31.05.19.33a11.46,11.46,0,0,1-4.4,5.48c-.12.09-.17.08-.23-.06-.71-1.75-1.44-3.49-2.15-5.23a1,1,0,0,1,.6-1.42C31.78,30.06,31.9,30.06,32,30Z"/><path class="cls-1" d="M25.56,15.81c-.1,1.84-.21,3.67-.31,5.5a1,1,0,0,1-.88,1.06,1,1,0,0,1-.76-.21C22.06,21.07,20.52,20,19,18.88c-.17-.12-.05-.18,0-.25a11.51,11.51,0,0,1,5.18-2.82c.37-.09.75-.16,1.13-.22S25.58,15.55,25.56,15.81Z"/><path class="cls-1" d="M15.37,27a11.52,11.52,0,0,1,1.57-5.84c.09-.14.13-.2.29-.06l4.1,3.68a1.16,1.16,0,0,1,.45.73A1,1,0,0,1,21,26.69L15.6,28.25c-.12,0-.17,0-.19-.12A9.93,9.93,0,0,1,15.37,27Z"/><path class="cls-1" d="M38.57,28.27l-2.31-.66-3.17-.91a1.08,1.08,0,0,1-.91-1.05,1,1,0,0,1,.38-.76c1.4-1.27,2.81-2.52,4.22-3.79.14-.13.17,0,.22.08a11.53,11.53,0,0,1,1.39,3.63,11.28,11.28,0,0,1,.2,3.33S38.58,28.21,38.57,28.27Z"/><path class="cls-1" d="M27.11,38.74a12.57,12.57,0,0,1-3.65-.56c-.15,0-.17-.09-.09-.23l2.7-4.88a1,1,0,0,1,1-.6,1,1,0,0,1,.84.61c.92,1.63,1.82,3.27,2.73,4.91.07.12,0,.15-.08.19a12,12,0,0,1-2.58.51A8,8,0,0,1,27.11,38.74Z"/><path class="cls-1" d="M22,30.07a1,1,0,0,1,1,1.21,13.75,13.75,0,0,1-.72,1.84c-.48,1.19-1,2.36-1.46,3.55-.07.18-.13.19-.29.09a11.76,11.76,0,0,1-4.36-5.44c-.08-.21-.07-.27.17-.3l5.44-.92Z"/><path class="cls-1" d="M28.43,15.92v-.1c0-.27,0-.27.26-.23A11.66,11.66,0,0,1,35,18.64c.13.12.12.17,0,.26l-4.49,3.18a1.19,1.19,0,0,1-.7.27,1,1,0,0,1-1-.94l-.12-2c-.07-1.16-.13-2.31-.19-3.46Z"/><path class="cls-1" d="M27,25.25a4.34,4.34,0,0,0,.51,0,.57.57,0,0,1,.6.28c.24.34.52.66.78,1a.24.24,0,0,1,.07.25c-.12.49-.23,1-.34,1.46a.26.26,0,0,1-.17.22l-1.33.65a.32.32,0,0,1-.3,0l-1.29-.62a.36.36,0,0,1-.22-.27c-.1-.45-.2-.9-.31-1.34a.43.43,0,0,1,.08-.39q.45-.52.87-1.08a.33.33,0,0,1,.31-.14C26.53,25.26,26.78,25.25,27,25.25Z"/></g></g></svg>