<svg xmlns="http://www.w3.org/2000/svg" viewBox="0 0 47.55 64.77"><defs></defs><title>Recurso 2Ubicación x2</title><g id="Capa_2" data-name="Capa 2"><g id="Localidades"><path fill="#f7004d" d="M23.64,0A23.85,23.85,0,0,1,47.33,20.16a22.18,22.18,0,0,1-1.73,12A88.33,88.33,0,0,1,38.4,45.8a206.45,206.45,0,0,1-12.7,18,2.28,2.28,0,0,1-3.77,0Q17,57.57,12.61,51A129,129,0,0,1,4.49,37.52,48.61,48.61,0,0,1,.62,27.93a19.05,19.05,0,0,1,.47-11.14C4.26,7.39,10.83,1.88,20.61.2A14.71,14.71,0,0,1,23.64,0Z"/><path fill="#282828" d="M34.23,24.37l-3.3-5.07-9.13,9-7.26,7.39,4.36,6.67,7.28-7.41h0l.28-.29.06,0,.6-.59,6.79-6.67A2.33,2.33,0,0,0,34.23,24.37ZM19.68,43.29l5,7.67.23-.23a12.19,12.19,0,0,0,2-14.83Zm8-32-3.13-4.8L8.11,22.59a2.35,2.35,0,0,0-.32,3l6,9.13L21,27.3l-2.58-3.93,8.82-8.67A2.74,2.74,0,0,0,27.64,11.26Z"/></g></g></svg>