<svg xmlns="http://www.w3.org/2000/svg" viewBox="0 0 53.3 53.59"><defs><style>.cls-1{fill:#d4d4d4;}</style></defs><title>Recurso 3413</title><g id="Capa_2" data-name="Capa 2"><g id="Capa_1-2" data-name="Capa 1"><path class="cls-1" d="M53,28c-2.28,3-5.17,5.34-7.75,8-1.4,1.45-3.12,1.49-4.34.23s-1-2.89.3-4.24,2.73-2.8,4.15-4.14c.74-.72.75-1.27,0-2-1.42-1.34-2.78-2.74-4.15-4.13s-1.58-3.09-.36-4.35,3-1.2,4.44.31c2.48,2.64,5.16,5.06,7.57,7.78A2.44,2.44,0,0,1,53,28Z"/><path class="cls-1" d="M39.56,40.28a2.69,2.69,0,0,0-1.8-2.42,3,3,0,0,0-3.31.75C32.23,40.84,30,43,27.79,45.31c-.87.91-1.44.81-2.27,0q-4.47-4.58-9-9c-1-.94-1.9-1.9-2.83-2.87a5,5,0,0,0-.9-1.2c-1.45-1.47-2.89-2.95-4.39-4.36-.8-.76-.79-1.34,0-2.09,1.5-1.42,2.94-2.9,4.38-4.37a4.13,4.13,0,0,0,.71-.95h0q3.36-3.33,6.69-6.68l.48-.48a5.28,5.28,0,0,0,.76-.63c1.45-1.43,2.9-2.85,4.3-4.33.75-.79,1.32-.78,2.06,0,1.41,1.48,2.86,2.9,4.31,4.32a6.47,6.47,0,0,0,.51.43l.51.51,1.26,1.24c1.43,1.41,3.14,1.49,4.35.27s1.1-3-.31-4.35L37.17,9.52S31,2.67,27.9.29a2.55,2.55,0,0,0-2.6.16c-1.58,1.4-3.07,2.89-4.55,4.38Q19,6.56,17.22,8.31l0,0,0,0c-2.76,2.76-5.49,5.56-8.24,8.33l0,0-.4.37c-2,2.07-4.16,4-6.13,6.08l-.12.12a0,0,0,0,1,0,0h0c-.66.72-1.3,1.46-1.9,2.24a2.7,2.7,0,0,0-.3,1.3H0a2.1,2.1,0,0,0,.26,1.05.06.06,0,0,0,0,.08c5,5.56,10.44,10.62,15.68,15.91,2.18,2.2,4.29,4.47,6.53,6.6l.07.07h0c.83.81,1.69,1.6,2.6,2.34h0l.16.13.32.25a1.24,1.24,0,0,0,.33.14,2.59,2.59,0,0,0,1.7,0l.2-.09a1.79,1.79,0,0,0,.28-.2C30.87,50.73,33.3,48,36,45.54a4,4,0,0,0,1-1.36h0a9.74,9.74,0,0,1,1-.88A3.27,3.27,0,0,0,39.56,40.28Z"/><path class="cls-1" d="M26.83,20.64a6.27,6.27,0,1,1-6.31,6A6.28,6.28,0,0,1,26.83,20.64Z"/></g></g></svg>