<svg xmlns="http://www.w3.org/2000/svg" viewBox="0 0 60.43 48.14"><defs><style>.cls-1{fill:#d4d4d4;}</style></defs><title>Recurso 3010</title><g id="Capa_2" data-name="Capa 2"><g id="Capa_1-2" data-name="Capa 1"><path class="cls-1" d="M11.9,0H48.6l.17,0a6.09,6.09,0,0,1,5,6.06c0,.57,0,1.14,0,1.71,0,1.38.05,2.76.18,4.14a24.18,24.18,0,0,0,.93,4.91,10.61,10.61,0,0,0,1.69,3.46,5.33,5.33,0,0,0,3.87,2.18v3.12a5.43,5.43,0,0,0-2,.56A6.07,6.07,0,0,0,56,28.7a15.64,15.64,0,0,0-1.71,5.15A29.07,29.07,0,0,0,53.81,38c0,1-.09,1.94,0,2.92a8.7,8.7,0,0,1-.23,2.87,6,6,0,0,1-5.63,4.34H12.53a5.24,5.24,0,0,1-2.46-.58,6.06,6.06,0,0,1-3.41-5.47c0-1.06,0-2.13,0-3.19a35.38,35.38,0,0,0-.52-5.35A16.38,16.38,0,0,0,4.7,29.06,5.78,5.78,0,0,0,.21,25.64c-.2,0-.21-.16-.21-.31,0-.84,0-1.68,0-2.52,0-.21.06-.31.29-.34a5.14,5.14,0,0,0,2.58-1.1A7.06,7.06,0,0,0,4.73,19,16.84,16.84,0,0,0,6.2,14.3a30.42,30.42,0,0,0,.44-4.15,27.44,27.44,0,0,0,0-2.87,10.38,10.38,0,0,1,0-1.85A6.06,6.06,0,0,1,10.08.55,6.39,6.39,0,0,1,11.9,0ZM34.61,23.29s0-.05.06-.06l.17,0a5.22,5.22,0,0,0,1.45-.57A5.67,5.67,0,0,0,39.18,17a5.66,5.66,0,0,0-3-4.67,8.43,8.43,0,0,0-4.22-1.09c-3.54,0-7.08,0-10.62,0-.32,0-.34,0-.34.35v25c0,.33,0,.35.34.35,3.57,0,7.15,0,10.72,0a10.84,10.84,0,0,0,4-.74,6.75,6.75,0,0,0,3.66-3.07,7.21,7.21,0,0,0,.79-3.87,5.9,5.9,0,0,0-1-3.05,6.46,6.46,0,0,0-4.34-2.72A1.63,1.63,0,0,1,34.61,23.29Z"/><path class="cls-1" d="M25.12,29.39v-3.8c0-.36,0-.38.36-.38,1.77,0,3.54,0,5.31,0a8.39,8.39,0,0,1,3.06.53,3.69,3.69,0,0,1,2.4,4.16,3.64,3.64,0,0,1-2.74,3.27,8.24,8.24,0,0,1-2.56.39c-1.82,0-3.65,0-5.48,0-.33,0-.34,0-.34-.34C25.12,32,25.12,30.67,25.12,29.39Z"/><path class="cls-1" d="M25.12,18.32V14.9c0-.35,0-.36.35-.36h5.29a6,6,0,0,1,2.14.39A3.13,3.13,0,0,1,35,17.59a3.53,3.53,0,0,1-1,3.23,4.65,4.65,0,0,1-2.22,1.07,8,8,0,0,1-1.89.22H25.49c-.36,0-.36,0-.36-.37C25.12,20.6,25.12,19.46,25.12,18.32Z"/></g></g></svg>