<svg xmlns="http://www.w3.org/2000/svg" viewBox="0 0 47.62 67.26"><defs><style>.cls-1{fill:#d4d4d4;}</style></defs><title>Recurso 233</title><g id="Capa_2" data-name="Capa 2"><g id="Capa_1-2" data-name="Capa 1"><path class="cls-1" d="M47.62,13.15v1.53c-.18,1.57-.37,3.15-.51,4.72-.61,6.77-1.19,13.54-1.79,20.3-.61,7-1.26,14-1.85,21a1.6,1.6,0,0,1-1.34,1.65c-5.82,1.58-11.63,3.2-17.43,4.82a3.27,3.27,0,0,1-1.86,0q-8.71-2.45-17.42-4.84a1.49,1.49,0,0,1-1.28-1.56C3.78,56.16,3.35,51.61,3,47.06L1.51,31C1,25.62.56,20.22.06,14.81c-.15-1.59-.12-1.68,1.49-1.68h45ZM23.84,23.27v0H10.14c-1,0-1.16.16-1,1.18s.19,1.83.27,2.74C9.52,29,9.52,29,11.29,29l19.7.14c1.16,0,1.26.14,1.15,1.27s-.22,2.15-.29,3.22c-.11,1.7-.1,1.71-1.75,1.71l-18.66,0c-1.23,0-1.36.14-1.26,1.39.08,1,.27,2.08.28,3.13S11,41.14,12,41.13c6,0,12,0,18,0,.89,0,1.28.21,1.17,1.18-.23,1.95-.39,3.91-.55,5.87a1.1,1.1,0,0,1-1,1.1c-1.73.43-3.44.91-5.15,1.38a2.43,2.43,0,0,1-1.31,0c-1.75-.47-3.49-1-5.24-1.41a1.15,1.15,0,0,1-1-1.21c-.05-.92-.17-1.84-.2-2.76,0-.7-.32-1-1-1-1.27,0-2.53,0-3.8,0-.7,0-1,.28-.93,1,.23,2.43.46,4.87.67,7.3a1.18,1.18,0,0,0,1,1.18c3.46.94,6.91,1.91,10.37,2.87a2.73,2.73,0,0,0,1.5.09q5.31-1.48,10.63-3A1,1,0,0,0,36,52.68c0-.85.13-1.71.21-2.56q1.14-12.9,2.31-25.79c.08-.83-.18-1.07-1-1.07C33,23.28,28.41,23.27,23.84,23.27Z"/><path class="cls-1" d="M35.81,0C36,2.73,36,2.73,33.36,2.74H32V3h2.52c1.24,0,1.31.07,1.31,1.28s0,2.67,0,4c0,.72-.23,1.07-1,1.06H29.37c-.73,0-1-.33-1-1V8.12c0-1.81,0-1.83,1.74-1.83a14.58,14.58,0,0,0,2.08-.11A8.24,8.24,0,0,0,29.44,6c-.78,0-1.09-.27-1.08-1,0-1.65,0-3.3,0-4.95Z"/><path class="cls-1" d="M27.24,0c-.07,2.73-.07,2.73-2.81,2.74H23.26V3c.93,0,1.87,0,2.8,0s1.17.26,1.15,1.09c0,1.39,0,2.79,0,4.18,0,.75-.27,1.1-1,1.09-1.81,0-3.61,0-5.42,0-.71,0-1-.28-1-1,0-2-.06-2,2-2H23.6V6c-.91,0-1.82,0-2.73,0s-1.17-.3-1.14-1.15c.06-1.62.06-3.23.08-4.85Z"/><path class="cls-1" d="M18.48,0c.3,3.11.3,3.1-2.81,3.13-.42,0-1-.2-1.2.31a3.3,3.3,0,0,0,0,2.15c.1.3.46.29.74.29l2.38,0c.61,0,.91.23.94.9.13,2.4.15,2.4-2.28,2.4-1.37,0-2.73,0-4.09,0-.84,0-1.13-.31-1.13-1.11,0-2.7,0-5.4,0-8.1Z"/></g></g></svg>