<svg xmlns="http://www.w3.org/2000/svg" viewBox="0 0 47.62 47.54"><defs><style>.cls-1{fill:#d4d4d4;}</style></defs><title>Recurso 266</title><g id="Capa_2" data-name="Capa 2"><g id="Capa_1-2" data-name="Capa 1"><path class="cls-1" d="M.26,47.53c-.42,0-.2-.29-.2-.42Q0,23.77.06.42C.06.29-.16,0,.26,0,.44.21.61.44.81.64Q11.93,11.76,23,22.89c.67.67,1,.48,1.62-.09C30.38,17,36.13,11.31,41.88,5.55c1.83-1.84,3.66-3.7,5.48-5.55.42,0,.21.29.21.42q0,23.36,0,46.69c0,.13.21.46-.21.42Q41.8,41.92,36.23,36.31c-.57-.58-.9-.22-1.29.18l-11,11h-.43a.87.87,0,0,0-.14-.27L12.5,36.36a.74.74,0,0,0-1.19,0Q5.79,42,.26,47.53Z"/></g></g></svg>