<svg xmlns="http://www.w3.org/2000/svg" viewBox="0 0 49.57 69.96"><defs><style>.cls-1{fill:#d4d4d4;}</style></defs><title>Recurso 222</title><g id="Capa_2" data-name="Capa 2"><g id="Capa_1-2" data-name="Capa 1"><path class="cls-1" d="M24.55,70c-.81-.29-1.66-.48-2.49-.71C17.45,68,12.84,66.69,8.22,65.41,7.1,65.1,6,64.78,4.85,64.49a.46.46,0,0,1-.4-.47c-.06-.75-.13-1.49-.19-2.24l-.39-4.26c-.1-1.17-.2-2.33-.31-3.5l-.39-4.38c-.11-1.19-.21-2.38-.31-3.57l-.39-4.29c-.1-1.18-.21-2.35-.31-3.53C2,36.83,1.9,35.41,1.78,34c-.11-1.19-.21-2.38-.32-3.57l-.33-3.65C1,25.59.93,24.41.82,23.23L.43,18.94c-.1-1.2-.21-2.4-.31-3.59L0,14c0-.2.06-.29.26-.28H49c.59,0,.58,0,.53.61-.13,1.21-.23,2.43-.34,3.65l-.33,3.62c-.1,1.18-.2,2.36-.31,3.54l-.33,3.68c-.1,1.17-.2,2.34-.31,3.51l-.39,4.32c-.1,1.19-.2,2.37-.31,3.56l-.39,4.29c-.1,1.17-.2,2.34-.31,3.51L46.2,51.7c-.1,1.19-.2,2.38-.31,3.57l-.39,4.29c-.1,1.18-.21,2.36-.31,3.53,0,.32-.06.64-.08,1a.39.39,0,0,1-.34.4c-1.46.39-2.92.8-4.38,1.21L28.21,69,24.9,70Zm.2-45.81H9.48c-.17,0-.22.06-.2.23.09,1,.17,2.05.27,3.07.1,1.18.22,2.36.32,3.54s.21,2.37.32,3.56c.12,1.4.26,2.8.38,4.2.12,1.24.24,2.48.34,3.71,0,.28.14.33.38.33,4.75,0,9.5,0,14.25,0,2.17,0,4.35,0,6.52,0,.2,0,.39,0,.36.28-.07.64-.12,1.29-.18,1.94-.17,1.85-.35,3.71-.51,5.56a.37.37,0,0,1-.3.39L25,52.74a1,1,0,0,1-.54,0L22,52.07l-3.91-1c-.22-.06-.33-.16-.33-.4s0-.46-.06-.69c-.1-1.19-.21-2.38-.3-3.57,0-.26-.13-.36-.41-.36-1.81,0-3.63,0-5.45,0h-.14c-.15,0-.2.08-.19.22l.06.67.39,4.23c.12,1.39.25,2.78.36,4.18a.47.47,0,0,0,.39.46q6,1.65,12,3.35a1.06,1.06,0,0,0,.56,0l11.68-3.24c.8-.23.75-.09.78-.92,0,0,0,0,0-.06.13-1.39.26-2.78.38-4.17s.25-2.84.37-4.26l.45-4.84c.13-1.48.26-3,.4-4.44,0-.49,0-.51-.46-.51H17.2c-.1,0-.2,0-.3,0s-.36-.06-.37-.31-.06-.58-.09-.87c-.14-1.65-.28-3.29-.44-4.93,0-.26.06-.34.3-.33H39.43c.2,0,.29-.08.3-.27s.05-.52.08-.78c.14-1.57.27-3.15.43-4.72,0-.3-.05-.35-.31-.35H24.75Z"/><path class="cls-1" d="M32.64,5c-.45.68-.89,1.36-1.33,2-.2.31-.41.62-.6.93s-.21.19-.33,0c-.58-.92-1.18-1.83-1.77-2.74-.05-.08-.08-.18-.18-.22a.6.6,0,0,0,0,.32c0,1.25,0,2.5,0,3.75,0,.39,0,.39-.39.39H25.55c-.23,0-.32-.07-.32-.32V.32c0-.24.08-.32.32-.32h2.74a.45.45,0,0,1,.44.25L30.41,3c.17.27.17.27.34,0L32.4.29A.48.48,0,0,1,32.88,0c.89,0,1.79,0,2.68,0,.27,0,.37.07.37.36q0,4.38,0,8.77c0,.28-.09.36-.37.36H33.14c-.44,0-.44,0-.44-.43V5Z"/><path class="cls-1" d="M4.6,4.73c0-1.45,0-2.91,0-4.37C4.59.08,4.68,0,5,0c.82,0,1.65,0,2.47,0,.29,0,.37.09.36.37,0,.8,0,1.61,0,2.42,0,.23.07.32.31.32.72,0,1.44,0,2.16,0,.28,0,.38-.08.37-.36,0-.8,0-1.59,0-2.39,0-.25.07-.36.35-.36.85,0,1.71,0,2.56,0,.24,0,.32.08.32.32V9.18c0,.22-.08.31-.3.31H10.91c-.23,0-.3-.1-.3-.32,0-.83,0-1.67,0-2.5,0-.26-.08-.34-.33-.34q-1.06,0-2.13,0c-.26,0-.34.09-.33.34,0,.82,0,1.63,0,2.45,0,.27-.08.38-.37.37-.84,0-1.69,0-2.53,0-.27,0-.35-.09-.35-.36C4.6,7.67,4.6,6.2,4.6,4.73Z"/><path class="cls-1" d="M19.53,0h4c.4,0,.4,0,.4.38,0,.82,0,1.65,0,2.47,0,.26-.09.34-.34.34-.69,0-1.38,0-2.07,0-.39,0-.39,0-.39.38V9.05c0,.43,0,.43-.44.43H18.33c-.42,0-.42,0-.42-.41V3.65c0-.46,0-.46-.47-.46-.65,0-1.3,0-2,0-.25,0-.35-.07-.34-.33,0-.85,0-1.69,0-2.54,0-.25.08-.33.33-.33Z"/><path class="cls-1" d="M37.41,4.73c0-1.45,0-2.91,0-4.37,0-.28.09-.36.37-.36.79,0,1.59,0,2.38,0,.47,0,.47,0,.47.45V5.88c0,.42,0,.42.42.42h3.64c.29,0,.4.07.39.37,0,.83,0,1.65,0,2.48,0,.25-.07.34-.33.34h-7c-.28,0-.35-.1-.35-.36C37.42,7.67,37.41,6.2,37.41,4.73Z"/></g></g></svg>