<svg xmlns="http://www.w3.org/2000/svg" viewBox="0 0 48.86 55.12"><defs><style>.cls-1{fill:#d4d4d4;}</style></defs><title>Recurso 211</title><g id="Capa_2" data-name="Capa 2"><g id="Capa_1-2" data-name="Capa 1"><path class="cls-1" d="M24.47,0H47.63c1.31,0,1.29,0,1.18,1.31C48.39,5.88,48,10.46,47.61,15c-.4,4.42-.82,8.84-1.22,13.26q-.51,5.65-1,11.31c-.27,3.06-.53,6.13-.79,9.19a1,1,0,0,1-.84,1L24.89,55.06A1.84,1.84,0,0,1,23.8,55c-6.17-1.73-12.34-3.47-18.52-5.18a1.17,1.17,0,0,1-1-1.19l-.81-9.18c-.34-3.93-.7-7.86-1-11.78q-.5-5.57-1-11.13Q.77,8.85,0,1.15C-.07.13,0,0,1.14,0Zm2,21.25v9.23c0,1.21,0,1.21,1.21,1,2.48-.45,5-.87,7.44-1.34.82-.16,1.07.07,1,.91a20.25,20.25,0,0,0-.08,2.7,1.33,1.33,0,0,1-1.19,1.49c-2.5.61-5,1.32-7.49,2a1,1,0,0,0-.86,1.11c0,1.24,0,2.48,0,3.73,0,.71.23.93,1,.74q5.55-1.49,11.11-2.9c.66-.16,1-.43,1-1.17.1-1.79.3-3.58.44-5.38.22-2.81.42-5.63.64-8.45.06-.68-.16-.94-.91-.83-2.43.34-4.87.61-7.31.92-1.17.15-1.32,0-1.33-1.11V17.6c0-1.25.08-1.33,1.32-1.33,2.64,0,5.29,0,7.93,0,.67,0,1.05-.16,1.09-.91.06-1.15.24-2.29.31-3.43s0-1.24-1.15-1.25c-4.32,0-8.65,0-13,0-.88,0-1.21.25-1.2,1.16C26.53,15,26.5,18.11,26.5,21.25ZM22.38,27V19.34c0-2.49,0-5,0-7.46,0-.75-.24-1.09-1-1-.62,0-1.24,0-1.86,0-1.59,0-1.59,0-1.59,1.59V34.88c0,1.37,0,1.37-1.27,1-2.43-.67-4.87-1.31-7.28-2-.8-.23-1,0-1,.76,0,1.14,0,2.3,0,3.44,0,.76.25,1.09,1,1.29,3.93,1,7.85,2.15,11.78,3.24,1.16.32,1.21.3,1.21-.9Z"/></g></g></svg>