<svg xmlns="http://www.w3.org/2000/svg" viewBox="0 0 56.6 56.49"><defs><style>.cls-1{fill:#d4d4d4;}</style></defs><title>Recurso 288</title><g id="Capa_2" data-name="Capa 2"><g id="Capa_1-2" data-name="Capa 1"><path class="cls-1" d="M56.6,30.29v.94c-.39.28-.27.73-.32,1.1a28.37,28.37,0,0,1-11.9,19.23c-.64.46-.91.38-1.34-.27C36,40.6,28.93,29.94,21.92,19.23a2.72,2.72,0,0,0-2.84-1.44c-1.08.1-1.35.33-1.35,1.45,0,2.89,0,5.78,0,8.67q0,6,0,12.06c0,.57.06,1.09.64,1.35a1.81,1.81,0,0,0,2.78-1.75l0-12.91c0-.79,0-1.58,0-2.61.29.37.41.51.51.66,6.38,9.44,12.7,18.92,19.7,27.92.38.49.22.64-.24.86A27.67,27.67,0,0,1,35,55.75c-1.14.26-2.28.5-3.42.74H24.74c-.32-.38-.8-.27-1.2-.33A28.29,28.29,0,1,1,56.08,23a9.68,9.68,0,0,0,.52,2.61v.56A14.43,14.43,0,0,0,56.6,30.29ZM38.5,37.68c0-.37,0-.49,0-.61q0-9.32,0-18.65c0-1.14-.27-1.37-1.51-1.38-1.59,0-1.92.2-1.93,1.35q0,6.8,0,13.57a1.26,1.26,0,0,0,.19.8C36.32,34.32,37.34,35.9,38.5,37.68Z"/></g></g></svg>