<svg xmlns="http://www.w3.org/2000/svg" viewBox="0 0 51.22 51.23"><defs><style>.cls-1{fill:#d4d4d4;}</style></defs><title>Recurso 277</title><g id="Capa_2" data-name="Capa 2"><g id="Capa_1-2" data-name="Capa 1"><path class="cls-1" d="M25.48,51.22c-4,0-8,0-12,0C5.61,51.19,0,45.6,0,37.79Q0,25.57,0,13.33A13,13,0,0,1,13.31,0q12.3,0,24.58,0A13,13,0,0,1,51.2,13.33q0,12.29,0,24.58A13,13,0,0,1,37.9,51.22C33.76,51.24,29.62,51.22,25.48,51.22Zm4.79-28.63c0-2.42,0-4.85,0-7.27,0-.85-.26-1-1.05-1s-1,.26-1,1.06c0,4.26,0,8.53,0,12.79A10.59,10.59,0,0,1,28,31c-.86,3.1-3.77,4.84-7.35,4.39a5.93,5.93,0,0,1-5.39-6q-.06-7,0-13.92c0-.83-.15-1.16-1.07-1.15s-1.1.26-1.09,1.12c0,4.47,0,9,0,13.42,0,4.76,2.71,8,7.4,8.51,5.76.66,10-3.08,9.79-8.47C30.19,26.77,30.27,24.68,30.27,22.59Zm8.11,3.14c0-3.43,0-6.86,0-10.29,0-.81-.1-1.18-1-1.16s-1.12.22-1.12,1.11q.06,10.23,0,20.45c0,.82.11,1.18,1,1.17s1.13-.22,1.11-1.11C38.34,32.51,38.38,29.12,38.38,25.73Z"/></g></g></svg>