<svg xmlns="http://www.w3.org/2000/svg" viewBox="0 0 57.45 51.16"><defs><style>.cls-1{fill:#d4d4d4;}</style></defs><title>Recurso 255</title><g id="Capa_2" data-name="Capa 2"><g id="Capa_1-2" data-name="Capa 1"><path class="cls-1" d="M11.08,41.94a27.38,27.38,0,0,1,.8-5.89c.13-.54,0-.78-.54-.95a23.5,23.5,0,0,1-8.41-4.34A10.11,10.11,0,0,1,1.26,29c-1.86-2.54-1.65-5.18.57-7.55a18,18,0,0,1,6-4,26.49,26.49,0,0,1,3.59-1.3c.5-.14.61-.36.49-.86a27.56,27.56,0,0,1-.83-7,13.66,13.66,0,0,1,.79-4.47A5.3,5.3,0,0,1,18.18.16,15.09,15.09,0,0,1,23.8,2.44a26.15,26.15,0,0,1,4.41,3.42c.43.41.68.35,1.08,0A25.67,25.67,0,0,1,36,1.13,9.44,9.44,0,0,1,41.23.06a4.9,4.9,0,0,1,3.71,2.56,10.83,10.83,0,0,1,1.32,4.69,26.55,26.55,0,0,1-.6,7.59c-.21,1-.43,1,.87,1.43a24.34,24.34,0,0,1,7.63,3.79,12.25,12.25,0,0,1,1.74,1.64,5.41,5.41,0,0,1-.14,7.73,18.22,18.22,0,0,1-6.38,4.3A24,24,0,0,1,46.22,35c-.49.15-.67.37-.53.91a25.84,25.84,0,0,1,.68,7.59,11.28,11.28,0,0,1-1.25,4.82,5.24,5.24,0,0,1-5.57,2.82,15.87,15.87,0,0,1-6.89-3,25.85,25.85,0,0,1-3.39-2.8c-.34-.33-.54-.3-.88,0a24.47,24.47,0,0,1-7.56,5,11.86,11.86,0,0,1-3.26.79c-2.72.26-4.91-1.3-5.84-4.19A15.76,15.76,0,0,1,11.08,41.94Zm17.53-7.15c1.55.09,3.08-.09,4.62-.11a1.13,1.13,0,0,0,1.06-.53A80.41,80.41,0,0,0,39,26a.88.88,0,0,0,0-.86A77.64,77.64,0,0,0,34.26,17a1.07,1.07,0,0,0-.8-.47c-.85-.12-1.71-.06-2.56-.12a53.86,53.86,0,0,0-6.84.12,1.11,1.11,0,0,0-.92.56,73.18,73.18,0,0,0-4.61,8,1,1,0,0,0,0,1,71.64,71.64,0,0,0,4.75,8.18.94.94,0,0,0,.85.46C25.61,34.7,27.11,34.88,28.61,34.79Zm-13.12-9.2a2.86,2.86,0,0,0-.1-.31,63,63,0,0,1-2.51-6.49c-.11-.33-.31-.4-.62-.29-.66.23-1.34.42-2,.67A17.16,17.16,0,0,0,3.7,23.08c-1.51,1.57-1.57,3-.21,4.71a5.3,5.3,0,0,0,.38.43,20.09,20.09,0,0,0,8.39,4.56c.43.13.53-.16.63-.46a63.59,63.59,0,0,1,2.41-6.23C15.38,25.92,15.43,25.74,15.49,25.59ZM13.61,42.27c0,.36,0,.72,0,1.08a9.44,9.44,0,0,0,.81,3.59,2.75,2.75,0,0,0,2.79,1.68,7.78,7.78,0,0,0,2.39-.5,21.68,21.68,0,0,0,7.11-4.65c.3-.28.25-.47,0-.76a56.73,56.73,0,0,1-4.25-5.28A.93.93,0,0,0,21.7,37a49.74,49.74,0,0,1-6.54-.93c-.52-.11-.76,0-.87.55A25.53,25.53,0,0,0,13.61,42.27ZM44,42.05a30.52,30.52,0,0,0-.69-5.6c-.1-.42-.25-.62-.74-.5a54.21,54.21,0,0,1-6.7,1,1,1,0,0,0-.75.44A50.86,50.86,0,0,1,31,42.66c-.32.35-.23.57.07.86a24.28,24.28,0,0,0,5.22,3.85,10.65,10.65,0,0,0,3.08,1.17c2,.39,3.19-.23,3.94-2.17A13.75,13.75,0,0,0,44,42.05ZM13.6,8.86a27.84,27.84,0,0,0,.73,5.82c.09.36.21.64.69.54a60.59,60.59,0,0,1,6.59-1,.92.92,0,0,0,.74-.36,59.52,59.52,0,0,1,4.29-5.33c.28-.3.26-.53-.05-.8a32.58,32.58,0,0,0-3-2.4,14.11,14.11,0,0,0-6-2.71,2.74,2.74,0,0,0-3.29,1.9A11.33,11.33,0,0,0,13.6,8.86ZM43.85,9a12.22,12.22,0,0,0-.15-2.1,7.13,7.13,0,0,0-1.08-3.28,2.47,2.47,0,0,0-2-1.1A6.67,6.67,0,0,0,37.88,3a22.92,22.92,0,0,0-7,4.72c-.29.27-.29.46,0,.76a48.65,48.65,0,0,1,4,5,1.53,1.53,0,0,0,1.22.7,46.35,46.35,0,0,1,6.19,1c.54.12.76-.07.87-.58A32.65,32.65,0,0,0,43.85,9ZM54.94,25.55a2.58,2.58,0,0,0-.43-1.46A6.85,6.85,0,0,0,53,22.38a22.69,22.69,0,0,0-7.77-3.84c-.4-.13-.55,0-.66.39a55,55,0,0,1-2.41,6.16,1,1,0,0,0,0,.87,54.37,54.37,0,0,1,2.51,6.3c.13.4.34.49.73.36,1-.32,1.91-.64,2.83-1a18.35,18.35,0,0,0,4.91-3A4.48,4.48,0,0,0,54.94,25.55Zm-17.7,8.66c.12,0,.17.06.22,0a44,44,0,0,0,4.43-.73c.45-.09.46-.35.34-.72-.42-1.26-.89-2.5-1.42-3.72-.06-.15-.09-.37-.29-.38s-.24.22-.32.36c-.77,1.44-1.58,2.85-2.43,4.25C37.59,33.6,37.42,33.89,37.24,34.21ZM20,34.32c.27,0,.25-.15.11-.38-1-1.62-2-3.29-2.9-5-.12-.24-.25-.36-.4,0-.54,1.34-1.06,2.69-1.5,4.07-.1.32,0,.53.32.6C17,33.92,18.46,34.12,20,34.32Zm6.16,2.94c-.16,0-.36-.08-.48.06s0,.25.09.35q1.32,1.71,2.77,3.32c.24.27.41.22.64,0,.87-1,1.72-2,2.51-3.09.11-.16.37-.31.23-.53s-.38-.1-.58-.09A40.7,40.7,0,0,1,26.14,37.26Zm4.54-23.35h.85c.13,0,.3,0,.36-.1s-.07-.24-.15-.34c-.83-1.06-1.68-2.11-2.58-3.12-.34-.38-.57-.32-.86,0-.79,1-1.61,1.92-2.4,2.89-.13.15-.38.3-.25.53s.39.11.59.1A27.36,27.36,0,0,1,30.68,13.91Zm7,3c-.36,0-.32.18-.17.42.33.55.68,1.1,1,1.66.59,1,1.17,2.08,1.77,3.12.12.21.26.53.46.05.55-1.29,1-2.6,1.47-3.95.09-.28,0-.48-.29-.55C40.49,17.37,39.09,17.13,37.64,16.93ZM15.28,18.09a36.41,36.41,0,0,0,1.57,4.21c.13.29.27.05.35-.09.21-.38.4-.78.62-1.15L20,17.42c.07-.12.21-.25.11-.41s-.23-.09-.36-.07c-1.33.23-2.66.45-4,.69C15.5,17.67,15.25,17.71,15.28,18.09Z"/><path class="cls-1" d="M28.75,20.41a5.12,5.12,0,0,1,5.14,5.15,5.17,5.17,0,0,1-10.33,0A5.13,5.13,0,0,1,28.75,20.41Z"/></g></g></svg>