<svg xmlns="http://www.w3.org/2000/svg" viewBox="0 0 54 51.27"><defs><style>.cls-1{fill:#d3d3d3;}</style></defs><title>Recurso 20programa </title><g id="Capa_2" data-name="Capa 2"><g id="Capa_1-2" data-name="Capa 1"><path class="cls-1" d="M27.21,0a1.83,1.83,0,0,0,.47.05,12.08,12.08,0,0,1,3.69,1,12.94,12.94,0,0,1,3.3,2.1A15.22,15.22,0,0,1,37.3,6.06a18.82,18.82,0,0,1,2.24,4.43,23.91,23.91,0,0,1,1,4.08c.11.69.19,1.38.25,2.08,0,.27,0,.29-.25.2-1-.35-2-.67-3.06-.93-.15,0-.17-.05-.18-.19A12.72,12.72,0,0,0,37,13.51a19,19,0,0,0-1.63-4.27,14.58,14.58,0,0,0-1.79-2.66A9.84,9.84,0,0,0,30.79,4.3a8.08,8.08,0,0,0-2.53-.87,8.18,8.18,0,0,0-1.71-.09,12.48,12.48,0,0,0-2.42.4,13,13,0,0,0-2.76,1,9.79,9.79,0,0,0-2.7,2,11.33,11.33,0,0,0-1,1.21,16.28,16.28,0,0,0-1.53,2.57,18.84,18.84,0,0,0-1.53,4.6,19.71,19.71,0,0,0-.32,2.29c0,.46-.07.92-.08,1.38s0,.9,0,1.35c0,.6,0,1.21.09,1.81A25.77,25.77,0,0,0,15,26.18,24,24,0,0,0,16.2,29.8a25.09,25.09,0,0,0,1.53,3.07c.12.22.13.22.38.19a3.5,3.5,0,0,1,1.67.21,3.79,3.79,0,0,1,2.52,3.12,3.56,3.56,0,0,1-.36,2.22,3.77,3.77,0,0,1-2.86,2.11A3.84,3.84,0,0,1,15,38.61a3.8,3.8,0,0,1-.39-1.87,3.61,3.61,0,0,1,.43-1.61.33.33,0,0,0,0-.39,33.5,33.5,0,0,1-1.61-3.16,31.18,31.18,0,0,1-1.18-3.09,28.16,28.16,0,0,1-1.06-4.35c-.11-.67-.19-1.35-.25-2A27.2,27.2,0,0,1,10.86,19c0-.55.06-1.1.11-1.65a23.65,23.65,0,0,1,.44-2.8A23.93,23.93,0,0,1,12,12.14c.24-.76.5-1.51.81-2.24a17.83,17.83,0,0,1,2.31-4c.32-.41.66-.8,1-1.19a15.48,15.48,0,0,1,3.09-2.56,13.83,13.83,0,0,1,5.22-2A9.42,9.42,0,0,1,25.76,0a.28.28,0,0,0,.13,0Z"/><path class="cls-1" d="M38.58,51.27a.58.58,0,0,0-.14,0,17.13,17.13,0,0,1-3.19-.44,22,22,0,0,1-3.29-1c-.42-.16-.83-.34-1.24-.53l-.06,0c-.12-.06-.12-.08,0-.17.53-.4,1.07-.82,1.6-1.24s.86-.7,1.27-1.07a.21.21,0,0,1,.25,0,17.64,17.64,0,0,0,4.15,1.21,15.29,15.29,0,0,0,2.94.19,10.93,10.93,0,0,0,4.31-1,9.64,9.64,0,0,0,2.19-1.44A10.56,10.56,0,0,0,49.51,43a8.62,8.62,0,0,0,1.21-3.63,7.88,7.88,0,0,0,.05-1,10.13,10.13,0,0,0-.2-1.9,13.11,13.11,0,0,0-.91-2.78,19.11,19.11,0,0,0-1.58-2.83,21.37,21.37,0,0,0-1.38-1.76c-.27-.3-.54-.6-.83-.88a20.58,20.58,0,0,0-2.58-2.17,27.7,27.7,0,0,0-3.78-2.25,26,26,0,0,0-4.62-1.74,26.82,26.82,0,0,0-3.44-.68q-.81-.11-1.62-.15c-.55,0-1.09-.06-1.63-.05s-.79,0-1.19,0a.28.28,0,0,0-.26.18A3.77,3.77,0,0,1,25,23.2a3.49,3.49,0,0,1-1.42.38,3.85,3.85,0,0,1-4.11-3.39,3.74,3.74,0,0,1,.79-2.83,3.69,3.69,0,0,1,2.44-1.44,3.75,3.75,0,0,1,3.47,1.25,2.65,2.65,0,0,1,.44.6.27.27,0,0,0,.31.16,10,10,0,0,1,1.09,0c.75,0,1.49,0,2.24.09a29.44,29.44,0,0,1,4,.54,28,28,0,0,1,5.87,1.84,26.14,26.14,0,0,1,4.39,2.44,25.82,25.82,0,0,1,2.21,1.69c.51.44,1,.89,1.48,1.37a24.68,24.68,0,0,1,2.58,3A17.58,17.58,0,0,1,53,33.2a15.93,15.93,0,0,1,.86,3.46,14.36,14.36,0,0,1,.1,2.7,11.68,11.68,0,0,1-.85,3.86,10.38,10.38,0,0,1-1.48,2.48,13,13,0,0,1-1.48,1.58,14.32,14.32,0,0,1-2.49,1.82,15.71,15.71,0,0,1-3,1.34,16.41,16.41,0,0,1-3.16.71c-.4,0-.79.09-1.19.1a.34.34,0,0,0-.14,0Z"/><path class="cls-1" d="M14.15,51.18a16.67,16.67,0,0,1-4.9-.67,14.17,14.17,0,0,1-4.68-2.33A10.46,10.46,0,0,1,1.77,45,13.23,13.23,0,0,1,.36,41.36a15.83,15.83,0,0,1-.28-1.81A12.33,12.33,0,0,1,0,37.63,15.54,15.54,0,0,1,.82,33.2a16.43,16.43,0,0,1,1.73-3.55A17.93,17.93,0,0,1,4.4,27.24a22.33,22.33,0,0,1,1.83-1.81q.78-.67,1.62-1.29C8,24,8,24,8.07,24.22c.24,1.08.5,2.14.84,3.19,0,.14,0,.14-.08.23a17.76,17.76,0,0,0-1.7,1.54,15.56,15.56,0,0,0-3,4.23,10.71,10.71,0,0,0-1,3.33,9.67,9.67,0,0,0-.05,1.94,10.19,10.19,0,0,0,1.66,4.8A8.76,8.76,0,0,0,6.3,45.34a8.47,8.47,0,0,0,1.51,1.08,10.61,10.61,0,0,0,3.59,1.22c.55.09,1.1.14,1.65.18a17.63,17.63,0,0,0,4.43-.3,19.54,19.54,0,0,0,4.28-1.35,31,31,0,0,0,3-1.59,28.54,28.54,0,0,0,2.78-1.85,19.46,19.46,0,0,0,1.57-1.28c.45-.39.87-.79,1.28-1.22a21.18,21.18,0,0,0,2.11-2.52A23.19,23.19,0,0,0,34.17,35l0-.1a.14.14,0,0,0,0-.18l-.29-.36A3.88,3.88,0,0,1,33.75,30a3.86,3.86,0,0,1,7.12,1.74A3.81,3.81,0,0,1,39.6,35a3.71,3.71,0,0,1-1.94.93.33.33,0,0,0-.28.21,26,26,0,0,1-2,3.38A26.12,26.12,0,0,1,33.47,42c-.51.58-1,1.15-1.6,1.68a25.87,25.87,0,0,1-2.17,1.88,26.4,26.4,0,0,1-5,3,28.72,28.72,0,0,1-4.2,1.58c-1,.29-2.08.54-3.13.73-.56.11-1.12.17-1.68.23S14.64,51.18,14.15,51.18Z"/></g></g></svg>