<svg xmlns="http://www.w3.org/2000/svg" viewBox="0 0 56.24 56.22"><defs><style>.cls-1{fill:#d4d4d4;}</style></defs><title>Recurso 299</title><g id="Capa_2" data-name="Capa 2"><g id="Capa_1-2" data-name="Capa 1"><path class="cls-1" d="M0,28.09c0-7.47,0-14.93,0-22.4A5.66,5.66,0,0,1,4.56.07a5,5,0,0,1,1-.07H50.74a5.47,5.47,0,0,1,5.49,5.51q0,22.6,0,45.19a5.48,5.48,0,0,1-5.49,5.52H5.51A5.48,5.48,0,0,1,0,50.71Q0,39.4,0,28.09Zm38.69,1.23s.08,0,.08.06A13.56,13.56,0,0,0,40,33c.1.17,0,.29-.14.4a9.15,9.15,0,0,0-1.3,1.34A5,5,0,0,0,37.26,38a1.1,1.1,0,0,0,1.39,1.14,6.62,6.62,0,0,0,2.77-1.31,3.37,3.37,0,0,0,1.31-4.14c-.14-.42,0-.59.36-.71a9.84,9.84,0,0,1,6.45.16,4.65,4.65,0,0,1,2,1.31c1.22,1.41,1.37,3.3-.47,4.48a1,1,0,0,0-.2.15c-.15.16-.12.27.09.29a.78.78,0,0,0,.34,0,3.08,3.08,0,0,0,2-2.41,4.33,4.33,0,0,0-1.22-3.79,7.12,7.12,0,0,0-5.23-2.17,9.86,9.86,0,0,0-4.44.88c-.18.08-.36.19-.49-.06a7.51,7.51,0,0,1-1-2.4,6.78,6.78,0,0,1,.4-3.37c.2-.55,0-.81-.56-.87a6.49,6.49,0,0,0-1.39,0,1.12,1.12,0,0,0-1.11,1,8,8,0,0,1-.48,1.63,41.51,41.51,0,0,1-2.18,4c-.17.3-.27.85-.62.8s-.4-.59-.52-.94a5.93,5.93,0,0,1,.18-4.21c.22-.57.06-.83-.54-.89a4.86,4.86,0,0,0-1.82.12.73.73,0,0,0-.58.62,5.73,5.73,0,0,1-.29,1c-1.17,2.92-2.5,5.77-3.8,8.63-.18.38-.37.76-.58,1.13-.08.15-.14.42-.35.37s-.1-.31-.11-.47a5,5,0,0,1,.13-1.29c.3-1.45.72-2.87,1.08-4.3.09-.32.17-.65-.15-.88a1,1,0,0,0-1.05-.16c-.38.2-.37,0-.32-.27a3.82,3.82,0,0,0,0-1.43,1.45,1.45,0,0,0-1.66-1.25,3,3,0,0,0-.72.16A7.52,7.52,0,0,0,20.66,31a1.64,1.64,0,0,1-.46.45q-2.2,1.19-4.38,2.4a.43.43,0,0,1-.61-.09,27.71,27.71,0,0,0-2.55-2.16,25,25,0,0,1-3.61-3.13,5,5,0,0,1-1.11-5.13,10.06,10.06,0,0,1,3.41-4.47,30.34,30.34,0,0,1,7.44-4.45,19.7,19.7,0,0,1,8.68-1.9,8,8,0,0,1,3.55.87,2.62,2.62,0,0,1,1.45,2.14,4.48,4.48,0,0,1-.32,2.17A10,10,0,0,1,29,21.78a15,15,0,0,1-7.76,3.14c-2,.23-3.86,0-5.37-1.48-.08-.09-.16-.18-.3-.12s-.12.19-.11.31a1.62,1.62,0,0,0,.37.87,5.62,5.62,0,0,0,1,1,7.38,7.38,0,0,0,4.74,1.11,17,17,0,0,0,5.85-1.22,12.22,12.22,0,0,0,7.23-7.2,6.61,6.61,0,0,0,.3-3.81c-.49-2.18-2.06-3.33-4-4a15,15,0,0,0-8.66-.25A33.72,33.72,0,0,0,9.36,16.41,15.86,15.86,0,0,0,4.69,22a5.37,5.37,0,0,0,.39,5.76,16.45,16.45,0,0,0,4,3.91c1.39,1,2.81,2,4.2,3,.4.28.38.36,0,.59l-.15.08A25.38,25.38,0,0,0,8,38.64a5.85,5.85,0,0,0-2.41,4.92,2.93,2.93,0,0,0,2.71,3,7.44,7.44,0,0,0,6.2-2.25,8,8,0,0,0,2-8.7c-.08-.25-.07-.41.17-.54l2.19-1.25a.37.37,0,0,1,.24-.06c.11.07,0,.19,0,.27a13.3,13.3,0,0,0-.49,2.56,7.38,7.38,0,0,0,1,4.55,1.67,1.67,0,0,0,1.09.88A1.85,1.85,0,0,0,22.82,41a25,25,0,0,0,1.37-2.86c.06-.13.08-.3.25-.39a1.94,1.94,0,0,1,0,.72,4.37,4.37,0,0,0,.2,2.06,1.14,1.14,0,0,0,2,.51,5,5,0,0,0,1.07-1.31,72.77,72.77,0,0,0,4.12-8.53c.05-.12.05-.29.23-.34a.34.34,0,0,1,.07.11,13.57,13.57,0,0,0,1.35,3.8.45.45,0,0,1-.09.55c-.31.4-.6.82-.92,1.21-.73.89-1.47,1.76-2.18,2.65A1,1,0,0,0,30,40.24c.19.41.59.46,1,.48a6,6,0,0,0,2.69-.59A3.74,3.74,0,0,0,36.3,36.3a4.62,4.62,0,0,0-.37-1.56.85.85,0,0,1,.09-.92,30.22,30.22,0,0,0,2.14-3.58A4.08,4.08,0,0,1,38.71,29.32Z"/><path class="cls-1" d="M15.16,37.68a6.42,6.42,0,0,1-4.53,6.11c-1.59.4-2.32-.31-2-1.92A4.74,4.74,0,0,1,9.8,39.7a20.64,20.64,0,0,1,4.73-3.57c.25-.15.36,0,.43.21C15.1,36.8,15.07,37.29,15.16,37.68Z"/><path class="cls-1" d="M21,37a9.46,9.46,0,0,1,2.44-6.07,2.34,2.34,0,0,1,1-.66c.45-.14.69,0,.65.5a6.77,6.77,0,0,1-.34,1.48,48.1,48.1,0,0,1-2.26,5.92,3.54,3.54,0,0,1-.41.67c-.32.42-.61.38-.82-.13A5.57,5.57,0,0,1,21,37Z"/><path class="cls-1" d="M41,34.91a2.72,2.72,0,0,1-1.66,2.54c-.14.07-.3.18-.44,0s-.06-.3,0-.46a6.26,6.26,0,0,1,1.53-2.62c.1-.1.19-.26.35-.22s.15.23.18.36S41,34.83,41,34.91Z"/><path class="cls-1" d="M34.29,36.62a3.15,3.15,0,0,1-1.3,2,2.43,2.43,0,0,1-.88.55c-.08,0-.18,0-.23,0s0-.16.07-.22A29.44,29.44,0,0,0,34,36.54c.05-.07.11-.16.21-.13S34.29,36.54,34.29,36.62Z"/></g></g></svg>