<svg xmlns="http://www.w3.org/2000/svg" xmlns:xlink="http://www.w3.org/1999/xlink" viewBox="0 0 1088.71 615.4"><defs><style>.cls-1,.cls-10,.cls-11,.cls-12,.cls-13,.cls-14,.cls-15,.cls-16,.cls-17,.cls-2,.cls-3,.cls-4,.cls-5,.cls-6,.cls-7,.cls-8,.cls-9{fill:none;stroke-miterlimit:10;stroke-width:0.5px;}.cls-1{stroke:url(#Degradado_sin_nombre_4);}.cls-2{stroke:url(#Degradado_sin_nombre_4-2);}.cls-3{stroke:url(#Degradado_sin_nombre_4-3);}.cls-4{stroke:url(#Degradado_sin_nombre_4-4);}.cls-5{stroke:url(#Degradado_sin_nombre_4-5);}.cls-6{stroke:url(#Degradado_sin_nombre_4-6);}.cls-7{stroke:url(#Degradado_sin_nombre_4-7);}.cls-8{stroke:url(#Degradado_sin_nombre_4-8);}.cls-9{stroke:url(#Degradado_sin_nombre_4-9);}.cls-10{stroke:url(#Degradado_sin_nombre_4-10);}.cls-11{stroke:url(#Degradado_sin_nombre_4-11);}.cls-12{stroke:url(#Degradado_sin_nombre_4-12);}.cls-13{stroke:url(#Degradado_sin_nombre_4-13);}.cls-14{stroke:url(#Degradado_sin_nombre_4-14);}.cls-15{stroke:url(#Degradado_sin_nombre_4-15);}.cls-16{stroke:url(#Degradado_sin_nombre_4-16);}.cls-17{stroke:url(#Degradado_sin_nombre_4-17);}</style><linearGradient id="Degradado_sin_nombre_4" x1="4705.24" y1="2412.05" x2="5793.95" y2="2412.05" gradientTransform="translate(5793.95 2970.52) rotate(180)" gradientUnits="userSpaceOnUse"><stop offset="0.01" stop-color="#1d1d1d"/><stop offset="0.05" stop-color="#221c1e"/><stop offset="0.11" stop-color="#321a22"/><stop offset="0.18" stop-color="#4c1727"/><stop offset="0.25" stop-color="#70122f"/><stop offset="0.32" stop-color="#9f0c39"/><stop offset="0.4" stop-color="#d70446"/><stop offset="0.44" stop-color="#f8004d"/><stop offset="0.47" stop-color="#e9115b"/><stop offset="0.57" stop-color="#ba4888"/><stop offset="0.67" stop-color="#9276ad"/><stop offset="0.77" stop-color="#749ac9"/><stop offset="0.86" stop-color="#5eb3de"/><stop offset="0.94" stop-color="#51c3eb"/><stop offset="1" stop-color="#4cc8ef"/></linearGradient><linearGradient id="Degradado_sin_nombre_4-2" x1="4705.24" y1="2443.4" x2="5793.95" y2="2443.4" xlink:href="#Degradado_sin_nombre_4"/><linearGradient id="Degradado_sin_nombre_4-3" x1="4705.24" y1="2474.74" x2="5793.95" y2="2474.74" xlink:href="#Degradado_sin_nombre_4"/><linearGradient id="Degradado_sin_nombre_4-4" x1="4705.24" y1="2506.09" x2="5793.95" y2="2506.09" xlink:href="#Degradado_sin_nombre_4"/><linearGradient id="Degradado_sin_nombre_4-5" x1="4705.24" y1="2537.44" x2="5793.95" y2="2537.44" xlink:href="#Degradado_sin_nombre_4"/><linearGradient id="Degradado_sin_nombre_4-6" x1="4705.24" y1="2568.78" x2="5793.95" y2="2568.78" xlink:href="#Degradado_sin_nombre_4"/><linearGradient id="Degradado_sin_nombre_4-7" x1="4705.24" y1="2600.13" x2="5793.95" y2="2600.13" xlink:href="#Degradado_sin_nombre_4"/><linearGradient id="Degradado_sin_nombre_4-8" x1="4705.24" y1="2631.48" x2="5793.95" y2="2631.48" xlink:href="#Degradado_sin_nombre_4"/><linearGradient id="Degradado_sin_nombre_4-9" x1="4705.24" y1="2662.82" x2="5793.95" y2="2662.82" xlink:href="#Degradado_sin_nombre_4"/><linearGradient id="Degradado_sin_nombre_4-10" x1="4705.24" y1="2694.17" x2="5793.95" y2="2694.17" xlink:href="#Degradado_sin_nombre_4"/><linearGradient id="Degradado_sin_nombre_4-11" x1="4705.24" y1="2725.52" x2="5793.95" y2="2725.52" xlink:href="#Degradado_sin_nombre_4"/><linearGradient id="Degradado_sin_nombre_4-12" x1="4705.24" y1="2756.87" x2="5793.95" y2="2756.87" xlink:href="#Degradado_sin_nombre_4"/><linearGradient id="Degradado_sin_nombre_4-13" x1="4705.24" y1="2788.21" x2="5793.95" y2="2788.21" xlink:href="#Degradado_sin_nombre_4"/><linearGradient id="Degradado_sin_nombre_4-14" x1="4705.24" y1="2819.56" x2="5793.95" y2="2819.56" xlink:href="#Degradado_sin_nombre_4"/><linearGradient id="Degradado_sin_nombre_4-15" x1="4705.24" y1="2850.91" x2="5793.95" y2="2850.91" xlink:href="#Degradado_sin_nombre_4"/><linearGradient id="Degradado_sin_nombre_4-16" x1="4705.24" y1="2882.25" x2="5793.95" y2="2882.25" xlink:href="#Degradado_sin_nombre_4"/><linearGradient id="Degradado_sin_nombre_4-17" x1="4705.24" y1="2913.6" x2="5793.95" y2="2913.6" xlink:href="#Degradado_sin_nombre_4"/></defs><title>Recurso 12Trama </title><g id="Capa_2" data-name="Capa 2"><g id="Capa_1-2" data-name="Capa 1"><path class="cls-1" d="M.18,558.48l48.65-48.65a27.39,27.39,0,0,1,38.74,0l48.65,48.65,48.65,48.65a27.4,27.4,0,0,0,38.75,0l48.65-48.65,48.64-48.65a27.4,27.4,0,0,1,38.75,0l48.65,48.65L457,607.13a27.39,27.39,0,0,0,38.74,0l48.65-48.65L593,509.83a27.4,27.4,0,0,1,38.75,0l48.65,48.65,48.65,48.65a27.39,27.39,0,0,0,38.74,0l48.65-48.65,48.65-48.65a27.4,27.4,0,0,1,38.75,0l48.65,48.65,48.65,48.65a27.39,27.39,0,0,0,38.74,0l48.65-48.65"/><path class="cls-2" d="M.18,527.13l48.65-48.65a27.39,27.39,0,0,1,38.74,0l48.65,48.65,48.65,48.65a27.4,27.4,0,0,0,38.75,0l48.65-48.65,48.64-48.65a27.4,27.4,0,0,1,38.75,0l48.65,48.65L457,575.78a27.39,27.39,0,0,0,38.74,0l48.65-48.65L593,478.48a27.4,27.4,0,0,1,38.75,0l48.65,48.65,48.65,48.65a27.39,27.39,0,0,0,38.74,0l48.65-48.65,48.65-48.65a27.4,27.4,0,0,1,38.75,0l48.65,48.65,48.65,48.65a27.39,27.39,0,0,0,38.74,0l48.65-48.65"/><path class="cls-3" d="M.18,495.78l48.65-48.65a27.39,27.39,0,0,1,38.74,0l48.65,48.65,48.65,48.65a27.4,27.4,0,0,0,38.75,0l48.65-48.65,48.64-48.65a27.4,27.4,0,0,1,38.75,0l48.65,48.65L457,544.43a27.39,27.39,0,0,0,38.74,0l48.65-48.65L593,447.13a27.4,27.4,0,0,1,38.75,0l48.65,48.65,48.65,48.65a27.39,27.39,0,0,0,38.74,0l48.65-48.65,48.65-48.65a27.4,27.4,0,0,1,38.75,0l48.65,48.65,48.65,48.65a27.39,27.39,0,0,0,38.74,0l48.65-48.65"/><path class="cls-4" d="M.18,464.44l48.65-48.65a27.39,27.39,0,0,1,38.74,0l48.65,48.65,48.65,48.64a27.4,27.4,0,0,0,38.75,0l48.65-48.64,48.64-48.65a27.4,27.4,0,0,1,38.75,0l48.65,48.65L457,513.08a27.39,27.39,0,0,0,38.74,0l48.65-48.64L593,415.79a27.4,27.4,0,0,1,38.75,0l48.65,48.65,48.65,48.64a27.39,27.39,0,0,0,38.74,0l48.65-48.64,48.65-48.65a27.4,27.4,0,0,1,38.75,0l48.65,48.65,48.65,48.64a27.39,27.39,0,0,0,38.74,0l48.65-48.64"/><path class="cls-5" d="M.18,433.09l48.65-48.65a27.39,27.39,0,0,1,38.74,0l48.65,48.65,48.65,48.65a27.4,27.4,0,0,0,38.75,0l48.65-48.65,48.64-48.65a27.4,27.4,0,0,1,38.75,0l48.65,48.65L457,481.74a27.39,27.39,0,0,0,38.74,0l48.65-48.65L593,384.44a27.4,27.4,0,0,1,38.75,0l48.65,48.65,48.65,48.65a27.39,27.39,0,0,0,38.74,0l48.65-48.65,48.65-48.65a27.4,27.4,0,0,1,38.75,0l48.65,48.65,48.65,48.65a27.39,27.39,0,0,0,38.74,0l48.65-48.65"/><path class="cls-6" d="M.18,401.74l48.65-48.65a27.39,27.39,0,0,1,38.74,0l48.65,48.65,48.65,48.65a27.4,27.4,0,0,0,38.75,0l48.65-48.65,48.64-48.65a27.4,27.4,0,0,1,38.75,0l48.65,48.65L457,450.39a27.39,27.39,0,0,0,38.74,0l48.65-48.65L593,353.09a27.4,27.4,0,0,1,38.75,0l48.65,48.65,48.65,48.65a27.39,27.39,0,0,0,38.74,0l48.65-48.65,48.65-48.65a27.4,27.4,0,0,1,38.75,0l48.65,48.65,48.65,48.65a27.39,27.39,0,0,0,38.74,0l48.65-48.65"/><path class="cls-7" d="M.18,370.39l48.65-48.64a27.39,27.39,0,0,1,38.74,0l48.65,48.64L184.87,419a27.4,27.4,0,0,0,38.75,0l48.65-48.65,48.64-48.64a27.4,27.4,0,0,1,38.75,0l48.65,48.64L457,419a27.39,27.39,0,0,0,38.74,0l48.65-48.65L593,321.75a27.4,27.4,0,0,1,38.75,0l48.65,48.64L729.05,419a27.39,27.39,0,0,0,38.74,0l48.65-48.65,48.65-48.64a27.4,27.4,0,0,1,38.75,0l48.65,48.64L1001.14,419a27.39,27.39,0,0,0,38.74,0l48.65-48.65"/><path class="cls-8" d="M.18,339.05,48.83,290.4a27.39,27.39,0,0,1,38.74,0l48.65,48.65,48.65,48.65a27.4,27.4,0,0,0,38.75,0l48.65-48.65,48.64-48.65a27.4,27.4,0,0,1,38.75,0l48.65,48.65L457,387.7a27.39,27.39,0,0,0,38.74,0l48.65-48.65L593,290.4a27.4,27.4,0,0,1,38.75,0l48.65,48.65,48.65,48.65a27.39,27.39,0,0,0,38.74,0l48.65-48.65,48.65-48.65a27.4,27.4,0,0,1,38.75,0l48.65,48.65,48.65,48.65a27.39,27.39,0,0,0,38.74,0l48.65-48.65"/><path class="cls-9" d="M.18,307.7l48.65-48.65a27.39,27.39,0,0,1,38.74,0l48.65,48.65,48.65,48.65a27.4,27.4,0,0,0,38.75,0l48.65-48.65,48.64-48.65a27.4,27.4,0,0,1,38.75,0l48.65,48.65L457,356.35a27.39,27.39,0,0,0,38.74,0l48.65-48.65L593,259.05a27.4,27.4,0,0,1,38.75,0L680.4,307.7l48.65,48.65a27.39,27.39,0,0,0,38.74,0l48.65-48.65,48.65-48.65a27.4,27.4,0,0,1,38.75,0l48.65,48.65,48.65,48.65a27.39,27.39,0,0,0,38.74,0l48.65-48.65"/><path class="cls-10" d="M.18,276.35,48.83,227.7a27.39,27.39,0,0,1,38.74,0l48.65,48.65L184.87,325a27.4,27.4,0,0,0,38.75,0l48.65-48.65,48.64-48.65a27.4,27.4,0,0,1,38.75,0l48.65,48.65L457,325a27.39,27.39,0,0,0,38.74,0l48.65-48.65L593,227.7a27.4,27.4,0,0,1,38.75,0l48.65,48.65L729.05,325a27.39,27.39,0,0,0,38.74,0l48.65-48.65,48.65-48.65a27.4,27.4,0,0,1,38.75,0l48.65,48.65L1001.14,325a27.39,27.39,0,0,0,38.74,0l48.65-48.65"/><path class="cls-11" d="M.18,245l48.65-48.65a27.39,27.39,0,0,1,38.74,0L136.22,245l48.65,48.65a27.42,27.42,0,0,0,38.75,0L272.27,245l48.64-48.65a27.4,27.4,0,0,1,38.75,0L408.31,245,457,293.66a27.41,27.41,0,0,0,38.74,0L544.35,245,593,196.36a27.4,27.4,0,0,1,38.75,0L680.4,245l48.65,48.65a27.41,27.41,0,0,0,38.74,0L816.44,245l48.65-48.65a27.4,27.4,0,0,1,38.75,0L952.49,245l48.65,48.65a27.41,27.41,0,0,0,38.74,0L1088.53,245"/><path class="cls-12" d="M.18,213.66,48.83,165a27.39,27.39,0,0,1,38.74,0l48.65,48.65,48.65,48.65a27.4,27.4,0,0,0,38.75,0l48.65-48.65L320.91,165a27.4,27.4,0,0,1,38.75,0l48.65,48.65L457,262.31a27.39,27.39,0,0,0,38.74,0l48.65-48.65L593,165a27.4,27.4,0,0,1,38.75,0l48.65,48.65,48.65,48.65a27.39,27.39,0,0,0,38.74,0l48.65-48.65L865.09,165a27.4,27.4,0,0,1,38.75,0l48.65,48.65,48.65,48.65a27.39,27.39,0,0,0,38.74,0l48.65-48.65"/><path class="cls-13" d="M.18,182.31l48.65-48.65a27.39,27.39,0,0,1,38.74,0l48.65,48.65L184.87,231a27.4,27.4,0,0,0,38.75,0l48.65-48.65,48.64-48.65a27.4,27.4,0,0,1,38.75,0l48.65,48.65L457,231a27.39,27.39,0,0,0,38.74,0l48.65-48.65L593,133.66a27.4,27.4,0,0,1,38.75,0l48.65,48.65L729.05,231a27.39,27.39,0,0,0,38.74,0l48.65-48.65,48.65-48.65a27.4,27.4,0,0,1,38.75,0l48.65,48.65L1001.14,231a27.39,27.39,0,0,0,38.74,0l48.65-48.65"/><path class="cls-14" d="M.18,151l48.65-48.64a27.39,27.39,0,0,1,38.74,0L136.22,151l48.65,48.65a27.4,27.4,0,0,0,38.75,0L272.27,151l48.64-48.64a27.4,27.4,0,0,1,38.75,0L408.31,151,457,199.61a27.39,27.39,0,0,0,38.74,0L544.35,151,593,102.32a27.4,27.4,0,0,1,38.75,0L680.4,151l48.65,48.65a27.39,27.39,0,0,0,38.74,0L816.44,151l48.65-48.65a27.4,27.4,0,0,1,38.75,0L952.49,151l48.65,48.64a27.39,27.39,0,0,0,38.74,0L1088.53,151"/><path class="cls-15" d="M.18,119.62,48.83,71a27.39,27.39,0,0,1,38.74,0l48.65,48.65,48.65,48.65a27.4,27.4,0,0,0,38.75,0l48.65-48.65L320.91,71a27.4,27.4,0,0,1,38.75,0l48.65,48.65L457,168.27a27.39,27.39,0,0,0,38.74,0l48.65-48.65L593,71a27.4,27.4,0,0,1,38.75,0l48.65,48.65,48.65,48.65a27.39,27.39,0,0,0,38.74,0l48.65-48.65L865.09,71a27.4,27.4,0,0,1,38.75,0l48.65,48.65,48.65,48.65a27.39,27.39,0,0,0,38.74,0l48.65-48.65"/><path class="cls-16" d="M.18,88.27,48.83,39.62a27.39,27.39,0,0,1,38.74,0l48.65,48.65,48.65,48.65a27.4,27.4,0,0,0,38.75,0l48.65-48.65,48.64-48.65a27.4,27.4,0,0,1,38.75,0l48.65,48.65L457,136.92a27.39,27.39,0,0,0,38.74,0l48.65-48.65L593,39.62a27.4,27.4,0,0,1,38.75,0L680.4,88.27l48.65,48.65a27.39,27.39,0,0,0,38.74,0l48.65-48.65,48.65-48.65a27.4,27.4,0,0,1,38.75,0l48.65,48.65,48.65,48.65a27.39,27.39,0,0,0,38.74,0l48.65-48.65"/><path class="cls-17" d="M.18,56.92,48.83,8.27a27.41,27.41,0,0,1,38.74,0l48.65,48.65,48.65,48.65a27.4,27.4,0,0,0,38.75,0l48.65-48.65L320.91,8.27a27.42,27.42,0,0,1,38.75,0l48.65,48.65L457,105.57a27.39,27.39,0,0,0,38.74,0l48.65-48.65L593,8.27a27.42,27.42,0,0,1,38.75,0L680.4,56.92l48.65,48.65a27.39,27.39,0,0,0,38.74,0l48.65-48.65L865.09,8.27a27.42,27.42,0,0,1,38.75,0l48.65,48.65,48.65,48.65a27.39,27.39,0,0,0,38.74,0l48.65-48.65"/></g></g></svg>